<svg xmlns="http://www.w3.org/2000/svg" fill="none" viewBox="0 0 18 18">
    <path fill="#ED1B2D"
          d="m6 13.164 3-3 3 3 1.166-1.167-3-3 3-3L12 4.831l-3 3-3-3-1.167 1.166 3 3-3 3L6 13.164Zm3 4.167a8.111 8.111 0 0 1-3.25-.657 8.411 8.411 0 0 1-2.646-1.78 8.41 8.41 0 0 1-1.78-2.647 8.11 8.11 0 0 1-.657-3.25 8.11 8.11 0 0 1 .656-3.25 8.41 8.41 0 0 1 1.781-2.645A8.421 8.421 0 0 1 5.75 1.32 8.119 8.119 0 0 1 9 .664c1.153 0 2.236.219 3.25.656a8.421 8.421 0 0 1 2.646 1.782 8.41 8.41 0 0 1 1.78 2.645 8.11 8.11 0 0 1 .657 3.25 8.11 8.11 0 0 1-.656 3.25 8.409 8.409 0 0 1-1.781 2.646 8.411 8.411 0 0 1-2.646 1.781 8.111 8.111 0 0 1-3.25.657Zm0-1.667c1.86 0 3.437-.646 4.729-1.937 1.292-1.292 1.938-2.869 1.938-4.73 0-1.86-.646-3.437-1.938-4.729-1.292-1.291-2.868-1.937-4.73-1.937-1.86 0-3.437.646-4.728 1.937-1.292 1.292-1.938 2.868-1.938 4.73 0 1.86.646 3.437 1.938 4.729C5.562 15.018 7.139 15.664 9 15.664Z"/>
</svg>