<svg version="1.0" xmlns="http://www.w3.org/2000/svg"
     width="512.000000pt" height="512.000000pt" viewBox="0 0 512.000000 512.000000"
     preserveAspectRatio="xMidYMid meet">

    <g transform="translate(0.000000,512.000000) scale(0.100000,-0.100000)"
       fill="#000000" stroke="none">
        <path d="M1923 4899 c-40 -12 -1240 -1154 -1267 -1206 -21 -42 -18 -108 8
-147 21 -33 1192 -1152 1231 -1178 40 -26 129 -21 172 10 62 44 63 52 63 456
l0 366 813 0 c878 0 920 -2 1080 -54 382 -126 672 -449 753 -839 8 -40 18
-121 23 -180 8 -115 18 -139 75 -181 20 -16 42 -21 86 -21 63 0 95 16 134 69
20 26 21 40 21 304 0 183 -5 302 -13 352 -64 366 -219 667 -472 920 -135 134
-259 223 -435 309 -147 73 -239 106 -402 143 -95 21 -119 22 -878 27 l-780 6
-5 377 c-5 363 -6 378 -26 405 -41 54 -118 81 -181 62z"/>
        <path d="M95 3186 c-42 -18 -83 -69 -91 -112 -12 -65 3 -543 20 -633 67 -355
218 -643 466 -891 227 -226 507 -378 835 -451 98 -22 118 -23 880 -28 l780 -6
5 -375 c4 -273 8 -381 17 -397 19 -32 61 -62 104 -73 85 -23 68 -37 726 591
361 345 616 595 627 616 21 42 18 108 -8 148 -21 33 -1192 1152 -1231 1177
-40 26 -129 21 -172 -10 -62 -44 -63 -52 -63 -456 l0 -366 -812 0 c-485 0
-841 4 -883 10 -430 62 -787 358 -920 765 -31 95 -43 163 -54 299 -8 114 -19
138 -73 179 -33 25 -113 32 -153 13z"/>
    </g>
</svg>
