<svg width="579" height="232" viewBox="0 0 579 232" fill="none" xmlns="http://www.w3.org/2000/svg">
    <rect x="24" y="65" width="536" height="78" rx="12" fill="#D9D9D9"/>
    <path d="M147.25 59.1989C146.18 59.1989 145.268 58.9077 144.516 58.3253C143.763 57.7382 143.188 56.8883 142.79 55.7756C142.392 54.6581 142.193 53.3087 142.193 51.7273C142.193 50.1553 142.392 48.813 142.79 47.7003C143.192 46.5829 143.77 45.7306 144.523 45.1435C145.28 44.5516 146.189 44.2557 147.25 44.2557C148.311 44.2557 149.217 44.5516 149.97 45.1435C150.728 45.7306 151.305 46.5829 151.703 47.7003C152.106 48.813 152.307 50.1553 152.307 51.7273C152.307 53.3087 152.108 54.6581 151.71 55.7756C151.312 56.8883 150.737 57.7382 149.984 58.3253C149.232 58.9077 148.32 59.1989 147.25 59.1989ZM147.25 57.6364C148.311 57.6364 149.134 57.125 149.722 56.1023C150.309 55.0795 150.602 53.6212 150.602 51.7273C150.602 50.4678 150.467 49.3954 150.197 48.5099C149.932 47.6245 149.549 46.9498 149.047 46.4858C148.55 46.0218 147.951 45.7898 147.25 45.7898C146.199 45.7898 145.377 46.3082 144.786 47.3452C144.194 48.3774 143.898 49.8381 143.898 51.7273C143.898 52.9867 144.03 54.0568 144.295 54.9375C144.561 55.8182 144.942 56.4882 145.439 56.9474C145.941 57.4067 146.545 57.6364 147.25 57.6364ZM155.748 59.1136C155.397 59.1136 155.097 58.9882 154.846 58.7372C154.595 58.4863 154.469 58.1856 154.469 57.8352C154.469 57.4848 154.595 57.1842 154.846 56.9332C155.097 56.6823 155.397 56.5568 155.748 56.5568C156.098 56.5568 156.399 56.6823 156.65 56.9332C156.901 57.1842 157.026 57.4848 157.026 57.8352C157.026 58.0672 156.967 58.2803 156.849 58.4744C156.735 58.6686 156.581 58.8248 156.387 58.9432C156.198 59.0568 155.985 59.1136 155.748 59.1136ZM164.242 59.1989C163.172 59.1989 162.261 58.9077 161.508 58.3253C160.755 57.7382 160.18 56.8883 159.782 55.7756C159.384 54.6581 159.185 53.3087 159.185 51.7273C159.185 50.1553 159.384 48.813 159.782 47.7003C160.184 46.5829 160.762 45.7306 161.515 45.1435C162.272 44.5516 163.182 44.2557 164.242 44.2557C165.303 44.2557 166.21 44.5516 166.962 45.1435C167.72 45.7306 168.298 46.5829 168.695 47.7003C169.098 48.813 169.299 50.1553 169.299 51.7273C169.299 53.3087 169.1 54.6581 168.702 55.7756C168.305 56.8883 167.729 57.7382 166.977 58.3253C166.224 58.9077 165.312 59.1989 164.242 59.1989ZM164.242 57.6364C165.303 57.6364 166.127 57.125 166.714 56.1023C167.301 55.0795 167.594 53.6212 167.594 51.7273C167.594 50.4678 167.46 49.3954 167.19 48.5099C166.924 47.6245 166.541 46.9498 166.039 46.4858C165.542 46.0218 164.943 45.7898 164.242 45.7898C163.191 45.7898 162.37 46.3082 161.778 47.3452C161.186 48.3774 160.89 49.8381 160.89 51.7273C160.89 52.9867 161.022 54.0568 161.288 54.9375C161.553 55.8182 161.934 56.4882 162.431 56.9474C162.933 57.4067 163.537 57.6364 164.242 57.6364ZM177.112 44.4545V59H175.35V46.3011H175.265L171.714 48.6591V46.8693L175.35 44.4545H177.112Z"
          fill="black"/>
    <path d="M2.01705 52.5227V51.3864L11.1648 46.7273V48.5455L4.14773 51.9261L4.20455 51.8125V52.0966L4.14773 51.983L11.1648 55.3636V57.1818L2.01705 52.5227ZM19.4336 59.1989C18.3635 59.1989 17.4521 58.9077 16.6992 58.3253C15.9464 57.7382 15.3711 56.8883 14.9734 55.7756C14.5756 54.6581 14.3768 53.3087 14.3768 51.7273C14.3768 50.1553 14.5756 48.813 14.9734 47.7003C15.3758 46.5829 15.9535 45.7306 16.7063 45.1435C17.4639 44.5516 18.373 44.2557 19.4336 44.2557C20.4942 44.2557 21.4009 44.5516 22.1538 45.1435C22.9113 45.7306 23.489 46.5829 23.8867 47.7003C24.2892 48.813 24.4904 50.1553 24.4904 51.7273C24.4904 53.3087 24.2915 54.6581 23.8938 55.7756C23.4961 56.8883 22.9208 57.7382 22.168 58.3253C21.4151 58.9077 20.5037 59.1989 19.4336 59.1989ZM19.4336 57.6364C20.4942 57.6364 21.3181 57.125 21.9052 56.1023C22.4923 55.0795 22.7859 53.6212 22.7859 51.7273C22.7859 50.4678 22.6509 49.3954 22.381 48.5099C22.1159 47.6245 21.7324 46.9498 21.2305 46.4858C20.7333 46.0218 20.1344 45.7898 19.4336 45.7898C18.3825 45.7898 17.561 46.3082 16.9691 47.3452C16.3772 48.3774 16.0813 49.8381 16.0813 51.7273C16.0813 52.9867 16.2139 54.0568 16.479 54.9375C16.7442 55.8182 17.1254 56.4882 17.6225 56.9474C18.1244 57.4067 18.7281 57.6364 19.4336 57.6364ZM27.9315 59.1136C27.5811 59.1136 27.2804 58.9882 27.0295 58.7372C26.7785 58.4863 26.6531 58.1856 26.6531 57.8352C26.6531 57.4848 26.7785 57.1842 27.0295 56.9332C27.2804 56.6823 27.5811 56.5568 27.9315 56.5568C28.2818 56.5568 28.5825 56.6823 28.8335 56.9332C29.0844 57.1842 29.2099 57.4848 29.2099 57.8352C29.2099 58.0672 29.1507 58.2803 29.0323 58.4744C28.9187 58.6686 28.7648 58.8248 28.5707 58.9432C28.3813 59.0568 28.1682 59.1136 27.9315 59.1136ZM36.4258 59.1989C35.3557 59.1989 34.4442 58.9077 33.6914 58.3253C32.9386 57.7382 32.3633 56.8883 31.9656 55.7756C31.5678 54.6581 31.369 53.3087 31.369 51.7273C31.369 50.1553 31.5678 48.813 31.9656 47.7003C32.368 46.5829 32.9457 45.7306 33.6985 45.1435C34.4561 44.5516 35.3652 44.2557 36.4258 44.2557C37.4864 44.2557 38.3931 44.5516 39.146 45.1435C39.9035 45.7306 40.4812 46.5829 40.8789 47.7003C41.2814 48.813 41.4826 50.1553 41.4826 51.7273C41.4826 53.3087 41.2837 54.6581 40.886 55.7756C40.4883 56.8883 39.913 57.7382 39.1602 58.3253C38.4073 58.9077 37.4959 59.1989 36.4258 59.1989ZM36.4258 57.6364C37.4864 57.6364 38.3103 57.125 38.8974 56.1023C39.4845 55.0795 39.7781 53.6212 39.7781 51.7273C39.7781 50.4678 39.6431 49.3954 39.3732 48.5099C39.1081 47.6245 38.7246 46.9498 38.2227 46.4858C37.7255 46.0218 37.1265 45.7898 36.4258 45.7898C35.3746 45.7898 34.5531 46.3082 33.9613 47.3452C33.3694 48.3774 33.0735 49.8381 33.0735 51.7273C33.0735 52.9867 33.2061 54.0568 33.4712 54.9375C33.7364 55.8182 34.1175 56.4882 34.6147 56.9474C35.1166 57.4067 35.7203 57.6364 36.4258 57.6364ZM49.2951 44.4545V59H47.5337V46.3011H47.4485L43.8974 48.6591V46.8693L47.5337 44.4545H49.2951Z"
          fill="black"/>
    <path d="M277.25 59.1989C276.18 59.1989 275.268 58.9077 274.516 58.3253C273.763 57.7382 273.188 56.8883 272.79 55.7756C272.392 54.6581 272.193 53.3087 272.193 51.7273C272.193 50.1553 272.392 48.813 272.79 47.7003C273.192 46.5829 273.77 45.7306 274.523 45.1435C275.28 44.5516 276.189 44.2557 277.25 44.2557C278.311 44.2557 279.217 44.5516 279.97 45.1435C280.728 45.7306 281.305 46.5829 281.703 47.7003C282.106 48.813 282.307 50.1553 282.307 51.7273C282.307 53.3087 282.108 54.6581 281.71 55.7756C281.312 56.8883 280.737 57.7382 279.984 58.3253C279.232 58.9077 278.32 59.1989 277.25 59.1989ZM277.25 57.6364C278.311 57.6364 279.134 57.125 279.722 56.1023C280.309 55.0795 280.602 53.6212 280.602 51.7273C280.602 50.4678 280.467 49.3954 280.197 48.5099C279.932 47.6245 279.549 46.9498 279.047 46.4858C278.55 46.0218 277.951 45.7898 277.25 45.7898C276.199 45.7898 275.377 46.3082 274.786 47.3452C274.194 48.3774 273.898 49.8381 273.898 51.7273C273.898 52.9867 274.03 54.0568 274.295 54.9375C274.561 55.8182 274.942 56.4882 275.439 56.9474C275.941 57.4067 276.545 57.6364 277.25 57.6364ZM285.748 59.1136C285.397 59.1136 285.097 58.9882 284.846 58.7372C284.595 58.4863 284.469 58.1856 284.469 57.8352C284.469 57.4848 284.595 57.1842 284.846 56.9332C285.097 56.6823 285.397 56.5568 285.748 56.5568C286.098 56.5568 286.399 56.6823 286.65 56.9332C286.901 57.1842 287.026 57.4848 287.026 57.8352C287.026 58.0672 286.967 58.2803 286.849 58.4744C286.735 58.6686 286.581 58.8248 286.387 58.9432C286.198 59.0568 285.985 59.1136 285.748 59.1136ZM294.242 59.1989C293.172 59.1989 292.261 58.9077 291.508 58.3253C290.755 57.7382 290.18 56.8883 289.782 55.7756C289.384 54.6581 289.185 53.3087 289.185 51.7273C289.185 50.1553 289.384 48.813 289.782 47.7003C290.184 46.5829 290.762 45.7306 291.515 45.1435C292.272 44.5516 293.182 44.2557 294.242 44.2557C295.303 44.2557 296.21 44.5516 296.962 45.1435C297.72 45.7306 298.298 46.5829 298.695 47.7003C299.098 48.813 299.299 50.1553 299.299 51.7273C299.299 53.3087 299.1 54.6581 298.702 55.7756C298.305 56.8883 297.729 57.7382 296.977 58.3253C296.224 58.9077 295.312 59.1989 294.242 59.1989ZM294.242 57.6364C295.303 57.6364 296.127 57.125 296.714 56.1023C297.301 55.0795 297.594 53.6212 297.594 51.7273C297.594 50.4678 297.46 49.3954 297.19 48.5099C296.924 47.6245 296.541 46.9498 296.039 46.4858C295.542 46.0218 294.943 45.7898 294.242 45.7898C293.191 45.7898 292.37 46.3082 291.778 47.3452C291.186 48.3774 290.89 49.8381 290.89 51.7273C290.89 52.9867 291.022 54.0568 291.288 54.9375C291.553 55.8182 291.934 56.4882 292.431 56.9474C292.933 57.4067 293.537 57.6364 294.242 57.6364ZM306.543 59.1989C305.71 59.1989 304.96 59.0331 304.292 58.7017C303.624 58.3703 303.089 57.9157 302.687 57.3381C302.284 56.7604 302.064 56.1023 302.026 55.3636H303.731C303.797 56.0218 304.095 56.5663 304.626 56.9972C305.161 57.4233 305.8 57.6364 306.543 57.6364C307.14 57.6364 307.67 57.4967 308.134 57.2173C308.603 56.938 308.97 56.5545 309.235 56.0668C309.505 55.5743 309.64 55.018 309.64 54.3977C309.64 53.7633 309.5 53.1974 309.221 52.7003C308.946 52.1984 308.567 51.803 308.085 51.5142C307.602 51.2254 307.05 51.0786 306.43 51.0739C305.985 51.0691 305.528 51.1378 305.059 51.2798C304.59 51.4171 304.204 51.5947 303.901 51.8125L302.254 51.6136L303.134 44.4545H310.691V46.017H304.612L304.1 50.3068H304.185C304.484 50.0701 304.858 49.8736 305.308 49.7173C305.757 49.5611 306.226 49.483 306.714 49.483C307.604 49.483 308.397 49.696 309.093 50.1222C309.794 50.5436 310.343 51.1212 310.741 51.8551C311.143 52.589 311.344 53.4271 311.344 54.3693C311.344 55.2973 311.136 56.1259 310.719 56.8551C310.308 57.5795 309.739 58.1525 309.015 58.5739C308.29 58.9905 307.467 59.1989 306.543 59.1989Z"
          fill="black"/>
    <path d="M417.25 59.1989C416.18 59.1989 415.268 58.9077 414.516 58.3253C413.763 57.7382 413.188 56.8883 412.79 55.7756C412.392 54.6581 412.193 53.3087 412.193 51.7273C412.193 50.1553 412.392 48.813 412.79 47.7003C413.192 46.5829 413.77 45.7306 414.523 45.1435C415.28 44.5516 416.189 44.2557 417.25 44.2557C418.311 44.2557 419.217 44.5516 419.97 45.1435C420.728 45.7306 421.305 46.5829 421.703 47.7003C422.106 48.813 422.307 50.1553 422.307 51.7273C422.307 53.3087 422.108 54.6581 421.71 55.7756C421.312 56.8883 420.737 57.7382 419.984 58.3253C419.232 58.9077 418.32 59.1989 417.25 59.1989ZM417.25 57.6364C418.311 57.6364 419.134 57.125 419.722 56.1023C420.309 55.0795 420.602 53.6212 420.602 51.7273C420.602 50.4678 420.467 49.3954 420.197 48.5099C419.932 47.6245 419.549 46.9498 419.047 46.4858C418.55 46.0218 417.951 45.7898 417.25 45.7898C416.199 45.7898 415.377 46.3082 414.786 47.3452C414.194 48.3774 413.898 49.8381 413.898 51.7273C413.898 52.9867 414.03 54.0568 414.295 54.9375C414.561 55.8182 414.942 56.4882 415.439 56.9474C415.941 57.4067 416.545 57.6364 417.25 57.6364ZM425.748 59.1136C425.397 59.1136 425.097 58.9882 424.846 58.7372C424.595 58.4863 424.469 58.1856 424.469 57.8352C424.469 57.4848 424.595 57.1842 424.846 56.9332C425.097 56.6823 425.397 56.5568 425.748 56.5568C426.098 56.5568 426.399 56.6823 426.65 56.9332C426.901 57.1842 427.026 57.4848 427.026 57.8352C427.026 58.0672 426.967 58.2803 426.849 58.4744C426.735 58.6686 426.581 58.8248 426.387 58.9432C426.198 59.0568 425.985 59.1136 425.748 59.1136ZM433.381 44.4545V59H431.62V46.3011H431.534L427.983 48.6591V46.8693L431.62 44.4545H433.381Z"
          fill="black"/>
    <path d="M551.165 52.5227L542.017 57.1818V55.3636L549.034 51.983L548.977 52.0966V51.8125L549.034 51.9261L542.017 48.5455V46.7273L551.165 51.3864V52.5227ZM559.434 59.1989C558.364 59.1989 557.452 58.9077 556.699 58.3253C555.946 57.7382 555.371 56.8883 554.973 55.7756C554.576 54.6581 554.377 53.3087 554.377 51.7273C554.377 50.1553 554.576 48.813 554.973 47.7003C555.376 46.5829 555.953 45.7306 556.706 45.1435C557.464 44.5516 558.373 44.2557 559.434 44.2557C560.494 44.2557 561.401 44.5516 562.154 45.1435C562.911 45.7306 563.489 46.5829 563.887 47.7003C564.289 48.813 564.49 50.1553 564.49 51.7273C564.49 53.3087 564.292 54.6581 563.894 55.7756C563.496 56.8883 562.921 57.7382 562.168 58.3253C561.415 58.9077 560.504 59.1989 559.434 59.1989ZM559.434 57.6364C560.494 57.6364 561.318 57.125 561.905 56.1023C562.492 55.0795 562.786 53.6212 562.786 51.7273C562.786 50.4678 562.651 49.3954 562.381 48.5099C562.116 47.6245 561.732 46.9498 561.23 46.4858C560.733 46.0218 560.134 45.7898 559.434 45.7898C558.382 45.7898 557.561 46.3082 556.969 47.3452C556.377 48.3774 556.081 49.8381 556.081 51.7273C556.081 52.9867 556.214 54.0568 556.479 54.9375C556.744 55.8182 557.125 56.4882 557.623 56.9474C558.124 57.4067 558.728 57.6364 559.434 57.6364ZM567.931 59.1136C567.581 59.1136 567.28 58.9882 567.029 58.7372C566.779 58.4863 566.653 58.1856 566.653 57.8352C566.653 57.4848 566.779 57.1842 567.029 56.9332C567.28 56.6823 567.581 56.5568 567.931 56.5568C568.282 56.5568 568.583 56.6823 568.833 56.9332C569.084 57.1842 569.21 57.4848 569.21 57.8352C569.21 58.0672 569.151 58.2803 569.032 58.4744C568.919 58.6686 568.765 58.8248 568.571 58.9432C568.381 59.0568 568.168 59.1136 567.931 59.1136ZM575.565 44.4545V59H573.803V46.3011H573.718L570.167 48.6591V46.8693L573.803 44.4545H575.565Z"
          fill="black"/>
    <line x1="160.5" y1="65" x2="160.5" y2="143" stroke="black"/>
    <line x1="424.5" y1="65" x2="424.5" y2="143" stroke="black"/>
    <line x1="292.5" y1="65" x2="292.5" y2="143" stroke="black"/>
    <mask id="path-10-inside-1_1_25" fill="white">
        <path d="M24 77C24 70.3726 29.3726 65 36 65H160V143H36C29.3726 143 24 137.627 24 131V77Z"/>
    </mask>
    <path d="M24 77C24 70.3726 29.3726 65 36 65H160V143H36C29.3726 143 24 137.627 24 131V77Z" fill="#06D6A0"/>
    <path d="M23 77C23 69.8203 28.8203 64 36 64H160V66H36C29.9249 66 25 70.9249 25 77H23ZM160 144H36C28.8203 144 23 138.18 23 131H25C25 137.075 29.9249 142 36 142H160V144ZM36 144C28.8203 144 23 138.18 23 131V77C23 69.8203 28.8203 64 36 64V66C29.9249 66 25 70.9249 25 77V131C25 137.075 29.9249 142 36 142V144ZM160 65V143V65Z"
          fill="black" mask="url(#path-10-inside-1_1_25)"/>
    <mask id="path-12-inside-2_1_25" fill="white">
        <path d="M425 65H549C555.627 65 561 70.3726 561 77V131C561 137.627 555.627 143 549 143H425V65Z"/>
    </mask>
    <path d="M425 65H549C555.627 65 561 70.3726 561 77V131C561 137.627 555.627 143 549 143H425V65Z" fill="#EF476F"/>
    <path d="M425 64H549C556.18 64 562 69.8203 562 77H560C560 70.9249 555.075 66 549 66H425V64ZM562 131C562 138.18 556.18 144 549 144H425V142H549C555.075 142 560 137.075 560 131H562ZM425 143V65V143ZM549 64C556.18 64 562 69.8203 562 77V131C562 138.18 556.18 144 549 144V142C555.075 142 560 137.075 560 131V77C560 70.9249 555.075 66 549 66V64Z"
          fill="black" mask="url(#path-12-inside-2_1_25)"/>
    <mask id="path-14-inside-3_1_25" fill="white">
        <path d="M161 65H292V143H161V65Z"/>
    </mask>
    <path d="M161 65H292V143H161V65Z" fill="#118AB2"/>
    <path d="M161 66H292V64H161V66ZM292 142H161V144H292V142Z" fill="black" mask="url(#path-14-inside-3_1_25)"/>
    <mask id="path-16-inside-4_1_25" fill="white">
        <path d="M293 65H424V143H293V65Z"/>
    </mask>
    <path d="M293 65H424V143H293V65Z" fill="#FFD166"/>
    <path d="M293 66H424V64H293V66ZM424 142H293V144H424V142Z" fill="black" mask="url(#path-16-inside-4_1_25)"/>
    <rect x="24.5" y="161.5" width="31" height="31" fill="#06D6A0" stroke="black"/>
    <path d="M64.7557 182.139C64.4053 182.139 64.1046 182.014 63.8537 181.763C63.6027 181.512 63.4773 181.211 63.4773 180.861C63.4773 180.51 63.6027 180.21 63.8537 179.959C64.1046 179.708 64.4053 179.582 64.7557 179.582C65.1061 179.582 65.4067 179.708 65.6577 179.959C65.9086 180.21 66.0341 180.51 66.0341 180.861C66.0341 181.093 65.9749 181.306 65.8565 181.5C65.7429 181.694 65.589 181.85 65.3949 181.969C65.2055 182.082 64.9924 182.139 64.7557 182.139ZM64.7557 174.781C64.4053 174.781 64.1046 174.656 63.8537 174.405C63.6027 174.154 63.4773 173.853 63.4773 173.503C63.4773 173.152 63.6027 172.852 63.8537 172.601C64.1046 172.35 64.4053 172.224 64.7557 172.224C65.1061 172.224 65.4067 172.35 65.6577 172.601C65.9086 172.852 66.0341 173.152 66.0341 173.503C66.0341 173.735 65.9749 173.948 65.8565 174.142C65.7429 174.336 65.589 174.492 65.3949 174.611C65.2055 174.724 64.9924 174.781 64.7557 174.781ZM74.8942 184V169.455H83.6158V171.017H76.6555V175.932H82.9624V177.494H76.6555V184H74.8942ZM90.0362 184.227C89.0514 184.227 88.1873 183.993 87.4439 183.524C86.7053 183.055 86.1276 182.4 85.7109 181.557C85.299 180.714 85.093 179.729 85.093 178.602C85.093 177.466 85.299 176.474 85.7109 175.626C86.1276 174.779 86.7053 174.121 87.4439 173.652C88.1873 173.183 89.0514 172.949 90.0362 172.949C91.0211 172.949 91.8828 173.183 92.6214 173.652C93.3648 174.121 93.9425 174.779 94.3544 175.626C94.7711 176.474 94.9794 177.466 94.9794 178.602C94.9794 179.729 94.7711 180.714 94.3544 181.557C93.9425 182.4 93.3648 183.055 92.6214 183.524C91.8828 183.993 91.0211 184.227 90.0362 184.227ZM90.0362 182.722C90.7843 182.722 91.3999 182.53 91.8828 182.146C92.3658 181.763 92.7232 181.259 92.9553 180.634C93.1873 180.009 93.3033 179.331 93.3033 178.602C93.3033 177.873 93.1873 177.194 92.9553 176.564C92.7232 175.934 92.3658 175.425 91.8828 175.037C91.3999 174.649 90.7843 174.455 90.0362 174.455C89.2881 174.455 88.6726 174.649 88.1896 175.037C87.7067 175.425 87.3492 175.934 87.1172 176.564C86.8852 177.194 86.7692 177.873 86.7692 178.602C86.7692 179.331 86.8852 180.009 87.1172 180.634C87.3492 181.259 87.7067 181.763 88.1896 182.146C88.6726 182.53 89.2881 182.722 90.0362 182.722ZM97.538 184V173.091H99.1573V174.739H99.271C99.4698 174.199 99.8297 173.761 100.35 173.425C100.871 173.089 101.458 172.92 102.112 172.92C102.235 172.92 102.389 172.923 102.574 172.928C102.758 172.932 102.898 172.939 102.993 172.949V174.653C102.936 174.639 102.806 174.618 102.602 174.589C102.403 174.556 102.192 174.54 101.97 174.54C101.44 174.54 100.966 174.651 100.549 174.874C100.137 175.091 99.8107 175.394 99.5692 175.783C99.3325 176.166 99.2141 176.604 99.2141 177.097V184H97.538ZM110.407 173.091V174.511H104.754V173.091H110.407ZM106.402 170.477H108.078V180.875C108.078 181.348 108.146 181.704 108.284 181.94C108.426 182.172 108.606 182.329 108.824 182.409C109.046 182.485 109.28 182.523 109.527 182.523C109.711 182.523 109.863 182.513 109.981 182.494C110.1 182.471 110.194 182.452 110.265 182.438L110.606 183.943C110.493 183.986 110.334 184.028 110.13 184.071C109.927 184.118 109.669 184.142 109.356 184.142C108.883 184.142 108.419 184.04 107.964 183.837C107.514 183.633 107.14 183.323 106.842 182.906C106.548 182.49 106.402 181.964 106.402 181.33V170.477ZM117.385 184.227C116.334 184.227 115.427 183.995 114.665 183.531C113.908 183.062 113.323 182.409 112.911 181.571C112.504 180.728 112.3 179.748 112.3 178.631C112.3 177.513 112.504 176.528 112.911 175.676C113.323 174.819 113.896 174.152 114.63 173.673C115.368 173.19 116.23 172.949 117.215 172.949C117.783 172.949 118.344 173.044 118.898 173.233C119.452 173.422 119.956 173.73 120.411 174.156C120.865 174.578 121.228 175.136 121.498 175.832C121.767 176.528 121.902 177.385 121.902 178.403V179.114H113.493V177.665H120.198C120.198 177.049 120.075 176.5 119.828 176.017C119.587 175.534 119.241 175.153 118.792 174.874C118.346 174.594 117.821 174.455 117.215 174.455C116.547 174.455 115.97 174.62 115.482 174.952C114.999 175.278 114.627 175.705 114.367 176.23C114.106 176.756 113.976 177.319 113.976 177.92V178.886C113.976 179.71 114.118 180.409 114.402 180.982C114.691 181.55 115.091 181.983 115.603 182.281C116.114 182.575 116.708 182.722 117.385 182.722C117.826 182.722 118.223 182.66 118.578 182.537C118.938 182.409 119.248 182.22 119.509 181.969C119.769 181.713 119.971 181.396 120.113 181.017L121.732 181.472C121.561 182.021 121.275 182.504 120.873 182.92C120.47 183.332 119.973 183.654 119.381 183.886C118.789 184.114 118.124 184.227 117.385 184.227ZM130.077 184V173.091H131.753V184H130.077ZM130.929 171.273C130.603 171.273 130.321 171.161 130.084 170.939C129.852 170.716 129.736 170.449 129.736 170.136C129.736 169.824 129.852 169.556 130.084 169.334C130.321 169.111 130.603 169 130.929 169C131.256 169 131.535 169.111 131.767 169.334C132.004 169.556 132.123 169.824 132.123 170.136C132.123 170.449 132.004 170.716 131.767 170.939C131.535 171.161 131.256 171.273 130.929 171.273ZM136.499 177.438V184H134.823V173.091H136.442V174.795H136.585C136.84 174.241 137.228 173.796 137.749 173.46C138.27 173.119 138.942 172.949 139.766 172.949C140.505 172.949 141.151 173.1 141.705 173.403C142.259 173.702 142.69 174.156 142.998 174.767C143.306 175.373 143.46 176.14 143.46 177.068V184H141.783V177.182C141.783 176.325 141.561 175.657 141.116 175.179C140.671 174.696 140.06 174.455 139.283 174.455C138.748 174.455 138.27 174.571 137.849 174.803C137.432 175.035 137.103 175.373 136.862 175.818C136.62 176.263 136.499 176.803 136.499 177.438ZM151.38 173.091V174.511H145.5V173.091H151.38ZM147.261 184V171.585C147.261 170.96 147.408 170.439 147.701 170.023C147.995 169.606 148.376 169.294 148.845 169.085C149.314 168.877 149.808 168.773 150.329 168.773C150.741 168.773 151.077 168.806 151.338 168.872C151.598 168.938 151.792 169 151.92 169.057L151.437 170.506C151.352 170.477 151.234 170.442 151.082 170.399C150.935 170.357 150.741 170.335 150.5 170.335C149.946 170.335 149.546 170.475 149.299 170.754C149.058 171.034 148.937 171.443 148.937 171.983V184H147.261ZM155.406 169.455V184H153.729V169.455H155.406ZM165.35 179.54V173.091H167.027V184H165.35V182.153H165.237C164.981 182.707 164.583 183.179 164.044 183.567C163.504 183.95 162.822 184.142 161.998 184.142C161.316 184.142 160.71 183.993 160.18 183.695C159.65 183.392 159.233 182.937 158.93 182.331C158.627 181.72 158.475 180.951 158.475 180.023V173.091H160.152V179.909C160.152 180.705 160.374 181.339 160.819 181.812C161.269 182.286 161.842 182.523 162.538 182.523C162.955 182.523 163.378 182.416 163.809 182.203C164.245 181.99 164.609 181.663 164.903 181.223C165.201 180.783 165.35 180.222 165.35 179.54ZM174.67 184.227C173.619 184.227 172.713 183.995 171.95 183.531C171.193 183.062 170.608 182.409 170.196 181.571C169.789 180.728 169.585 179.748 169.585 178.631C169.585 177.513 169.789 176.528 170.196 175.676C170.608 174.819 171.181 174.152 171.915 173.673C172.653 173.19 173.515 172.949 174.5 172.949C175.068 172.949 175.629 173.044 176.183 173.233C176.737 173.422 177.241 173.73 177.696 174.156C178.151 174.578 178.513 175.136 178.783 175.832C179.053 176.528 179.188 177.385 179.188 178.403V179.114H170.778V177.665H177.483C177.483 177.049 177.36 176.5 177.114 176.017C176.872 175.534 176.527 175.153 176.077 174.874C175.632 174.594 175.106 174.455 174.5 174.455C173.832 174.455 173.255 174.62 172.767 174.952C172.284 175.278 171.912 175.705 171.652 176.23C171.392 176.756 171.261 177.319 171.261 177.92V178.886C171.261 179.71 171.403 180.409 171.688 180.982C171.976 181.55 172.376 181.983 172.888 182.281C173.399 182.575 173.993 182.722 174.67 182.722C175.111 182.722 175.509 182.66 175.864 182.537C176.223 182.409 176.534 182.22 176.794 181.969C177.054 181.713 177.256 181.396 177.398 181.017L179.017 181.472C178.847 182.021 178.56 182.504 178.158 182.92C177.755 183.332 177.258 183.654 176.666 183.886C176.074 184.114 175.409 184.227 174.67 184.227ZM183.413 177.438V184H181.737V173.091H183.357V174.795H183.499C183.754 174.241 184.143 173.796 184.663 173.46C185.184 173.119 185.857 172.949 186.68 172.949C187.419 172.949 188.065 173.1 188.619 173.403C189.173 173.702 189.604 174.156 189.912 174.767C190.22 175.373 190.374 176.14 190.374 177.068V184H188.697V177.182C188.697 176.325 188.475 175.657 188.03 175.179C187.585 174.696 186.974 174.455 186.197 174.455C185.662 174.455 185.184 174.571 184.763 174.803C184.346 175.035 184.017 175.373 183.776 175.818C183.534 176.263 183.413 176.803 183.413 177.438ZM197.868 184.227C196.846 184.227 195.965 183.986 195.226 183.503C194.488 183.02 193.919 182.355 193.522 181.507C193.124 180.66 192.925 179.691 192.925 178.602C192.925 177.494 193.129 176.517 193.536 175.669C193.948 174.817 194.521 174.152 195.255 173.673C195.993 173.19 196.855 172.949 197.84 172.949C198.607 172.949 199.298 173.091 199.914 173.375C200.529 173.659 201.033 174.057 201.426 174.568C201.819 175.08 202.063 175.676 202.158 176.358H200.482C200.354 175.861 200.07 175.42 199.63 175.037C199.194 174.649 198.607 174.455 197.868 174.455C197.215 174.455 196.642 174.625 196.15 174.966C195.662 175.302 195.281 175.778 195.006 176.393C194.736 177.004 194.601 177.722 194.601 178.545C194.601 179.388 194.734 180.122 194.999 180.747C195.269 181.372 195.648 181.857 196.135 182.203C196.628 182.549 197.205 182.722 197.868 182.722C198.304 182.722 198.699 182.646 199.054 182.494C199.409 182.343 199.71 182.125 199.956 181.841C200.203 181.557 200.378 181.216 200.482 180.818H202.158C202.063 181.462 201.829 182.042 201.455 182.558C201.086 183.07 200.596 183.477 199.985 183.78C199.379 184.078 198.673 184.227 197.868 184.227ZM209.182 184.227C208.131 184.227 207.224 183.995 206.462 183.531C205.704 183.062 205.12 182.409 204.708 181.571C204.301 180.728 204.097 179.748 204.097 178.631C204.097 177.513 204.301 176.528 204.708 175.676C205.12 174.819 205.693 174.152 206.426 173.673C207.165 173.19 208.027 172.949 209.012 172.949C209.58 172.949 210.141 173.044 210.695 173.233C211.249 173.422 211.753 173.73 212.208 174.156C212.662 174.578 213.025 175.136 213.294 175.832C213.564 176.528 213.699 177.385 213.699 178.403V179.114H205.29V177.665H211.995C211.995 177.049 211.872 176.5 211.625 176.017C211.384 175.534 211.038 175.153 210.588 174.874C210.143 174.594 209.618 174.455 209.012 174.455C208.344 174.455 207.766 174.62 207.279 174.952C206.796 175.278 206.424 175.705 206.164 176.23C205.903 176.756 205.773 177.319 205.773 177.92V178.886C205.773 179.71 205.915 180.409 206.199 180.982C206.488 181.55 206.888 181.983 207.4 182.281C207.911 182.575 208.505 182.722 209.182 182.722C209.623 182.722 210.02 182.66 210.375 182.537C210.735 182.409 211.045 182.22 211.306 181.969C211.566 181.713 211.767 181.396 211.909 181.017L213.529 181.472C213.358 182.021 213.072 182.504 212.669 182.92C212.267 183.332 211.77 183.654 211.178 183.886C210.586 184.114 209.921 184.227 209.182 184.227Z"
          fill="black"/>
    <path d="M64.7557 221.139C64.4053 221.139 64.1046 221.014 63.8537 220.763C63.6027 220.512 63.4773 220.211 63.4773 219.861C63.4773 219.51 63.6027 219.21 63.8537 218.959C64.1046 218.708 64.4053 218.582 64.7557 218.582C65.1061 218.582 65.4067 218.708 65.6577 218.959C65.9086 219.21 66.0341 219.51 66.0341 219.861C66.0341 220.093 65.9749 220.306 65.8565 220.5C65.7429 220.694 65.589 220.85 65.3949 220.969C65.2055 221.082 64.9924 221.139 64.7557 221.139ZM64.7557 213.781C64.4053 213.781 64.1046 213.656 63.8537 213.405C63.6027 213.154 63.4773 212.853 63.4773 212.503C63.4773 212.152 63.6027 211.852 63.8537 211.601C64.1046 211.35 64.4053 211.224 64.7557 211.224C65.1061 211.224 65.4067 211.35 65.6577 211.601C65.9086 211.852 66.0341 212.152 66.0341 212.503C66.0341 212.735 65.9749 212.948 65.8565 213.142C65.7429 213.336 65.589 213.492 65.3949 213.611C65.2055 213.724 64.9924 213.781 64.7557 213.781ZM74.8942 208.455H76.9964L81.9396 220.528H82.1101L87.0533 208.455H89.1555V223H87.5078V211.949H87.3658L82.8203 223H81.2294L76.6839 211.949H76.5419V223H74.8942V208.455ZM96.8917 223.227C95.9068 223.227 95.0427 222.993 94.2994 222.524C93.5607 222.055 92.9831 221.4 92.5664 220.557C92.1545 219.714 91.9485 218.729 91.9485 217.602C91.9485 216.466 92.1545 215.474 92.5664 214.626C92.9831 213.779 93.5607 213.121 94.2994 212.652C95.0427 212.183 95.9068 211.949 96.8917 211.949C97.8765 211.949 98.7383 212.183 99.4769 212.652C100.22 213.121 100.798 213.779 101.21 214.626C101.627 215.474 101.835 216.466 101.835 217.602C101.835 218.729 101.627 219.714 101.21 220.557C100.798 221.4 100.22 222.055 99.4769 222.524C98.7383 222.993 97.8765 223.227 96.8917 223.227ZM96.8917 221.722C97.6398 221.722 98.2553 221.53 98.7383 221.146C99.2212 220.763 99.5787 220.259 99.8107 219.634C100.043 219.009 100.159 218.331 100.159 217.602C100.159 216.873 100.043 216.194 99.8107 215.564C99.5787 214.934 99.2212 214.425 98.7383 214.037C98.2553 213.649 97.6398 213.455 96.8917 213.455C96.1436 213.455 95.5281 213.649 95.0451 214.037C94.5621 214.425 94.2047 214.934 93.9727 215.564C93.7406 216.194 93.6246 216.873 93.6246 217.602C93.6246 218.331 93.7406 219.009 93.9727 219.634C94.2047 220.259 94.5621 220.763 95.0451 221.146C95.5281 221.53 96.1436 221.722 96.8917 221.722ZM105.082 227.091C104.798 227.091 104.545 227.067 104.322 227.02C104.1 226.977 103.946 226.935 103.861 226.892L104.287 225.415C104.694 225.519 105.054 225.557 105.366 225.528C105.679 225.5 105.956 225.36 106.197 225.109C106.444 224.863 106.669 224.463 106.872 223.909L107.185 223.057L103.151 212.091H104.969L107.98 220.784H108.094L111.105 212.091H112.923L108.293 224.591C108.084 225.154 107.826 225.621 107.518 225.99C107.211 226.364 106.853 226.641 106.446 226.821C106.044 227.001 105.589 227.091 105.082 227.091ZM119.319 223.227C118.268 223.227 117.361 222.995 116.599 222.531C115.841 222.062 115.256 221.409 114.844 220.571C114.437 219.728 114.234 218.748 114.234 217.631C114.234 216.513 114.437 215.528 114.844 214.676C115.256 213.819 115.829 213.152 116.563 212.673C117.302 212.19 118.164 211.949 119.148 211.949C119.717 211.949 120.278 212.044 120.832 212.233C121.386 212.422 121.89 212.73 122.344 213.156C122.799 213.578 123.161 214.136 123.431 214.832C123.701 215.528 123.836 216.385 123.836 217.403V218.114H115.427V216.665H122.131C122.131 216.049 122.008 215.5 121.762 215.017C121.521 214.534 121.175 214.153 120.725 213.874C120.28 213.594 119.754 213.455 119.148 213.455C118.481 213.455 117.903 213.62 117.415 213.952C116.933 214.278 116.561 214.705 116.3 215.23C116.04 215.756 115.91 216.319 115.91 216.92V217.886C115.91 218.71 116.052 219.409 116.336 219.982C116.625 220.55 117.025 220.983 117.536 221.281C118.048 221.575 118.642 221.722 119.319 221.722C119.759 221.722 120.157 221.66 120.512 221.537C120.872 221.409 121.182 221.22 121.442 220.969C121.703 220.713 121.904 220.396 122.046 220.017L123.665 220.472C123.495 221.021 123.209 221.504 122.806 221.92C122.404 222.332 121.906 222.654 121.315 222.886C120.723 223.114 120.058 223.227 119.319 223.227ZM128.062 216.438V223H126.386V212.091H128.005V213.795H128.147C128.403 213.241 128.791 212.796 129.312 212.46C129.833 212.119 130.505 211.949 131.329 211.949C132.067 211.949 132.714 212.1 133.268 212.403C133.822 212.702 134.253 213.156 134.56 213.767C134.868 214.373 135.022 215.14 135.022 216.068V223H133.346V216.182C133.346 215.325 133.123 214.657 132.678 214.179C132.233 213.696 131.622 213.455 130.846 213.455C130.311 213.455 129.833 213.571 129.411 213.803C128.995 214.035 128.665 214.373 128.424 214.818C128.183 215.263 128.062 215.803 128.062 216.438ZM139.761 216.438V223H138.085V212.091H139.704V213.795H139.846C140.102 213.241 140.49 212.796 141.011 212.46C141.532 212.119 142.204 211.949 143.028 211.949C143.767 211.949 144.413 212.1 144.967 212.403C145.521 212.702 145.952 213.156 146.26 213.767C146.567 214.373 146.721 215.14 146.721 216.068V223H145.045V216.182C145.045 215.325 144.823 214.657 144.377 214.179C143.932 213.696 143.322 213.455 142.545 213.455C142.01 213.455 141.532 213.571 141.11 213.803C140.694 214.035 140.365 214.373 140.123 214.818C139.882 215.263 139.761 215.803 139.761 216.438ZM154.358 223.227C153.307 223.227 152.4 222.995 151.638 222.531C150.88 222.062 150.295 221.409 149.884 220.571C149.476 219.728 149.273 218.748 149.273 217.631C149.273 216.513 149.476 215.528 149.884 214.676C150.295 213.819 150.868 213.152 151.602 212.673C152.341 212.19 153.203 211.949 154.188 211.949C154.756 211.949 155.317 212.044 155.871 212.233C156.425 212.422 156.929 212.73 157.384 213.156C157.838 213.578 158.2 214.136 158.47 214.832C158.74 215.528 158.875 216.385 158.875 217.403V218.114H150.466V216.665H157.17C157.17 216.049 157.047 215.5 156.801 215.017C156.56 214.534 156.214 214.153 155.764 213.874C155.319 213.594 154.794 213.455 154.188 213.455C153.52 213.455 152.942 213.62 152.455 213.952C151.972 214.278 151.6 214.705 151.339 215.23C151.079 215.756 150.949 216.319 150.949 216.92V217.886C150.949 218.71 151.091 219.409 151.375 219.982C151.664 220.55 152.064 220.983 152.575 221.281C153.087 221.575 153.681 221.722 154.358 221.722C154.798 221.722 155.196 221.66 155.551 221.537C155.911 221.409 156.221 221.22 156.482 220.969C156.742 220.713 156.943 220.396 157.085 220.017L158.705 220.472C158.534 221.021 158.248 221.504 157.845 221.92C157.443 222.332 156.946 222.654 156.354 222.886C155.762 223.114 155.097 223.227 154.358 223.227ZM167.05 223V212.091H168.726V223H167.05ZM167.902 210.273C167.575 210.273 167.294 210.161 167.057 209.939C166.825 209.716 166.709 209.449 166.709 209.136C166.709 208.824 166.825 208.556 167.057 208.334C167.294 208.111 167.575 208 167.902 208C168.229 208 168.508 208.111 168.74 208.334C168.977 208.556 169.095 208.824 169.095 209.136C169.095 209.449 168.977 209.716 168.74 209.939C168.508 210.161 168.229 210.273 167.902 210.273ZM173.472 216.438V223H171.796V212.091H173.415V213.795H173.557C173.813 213.241 174.201 212.796 174.722 212.46C175.243 212.119 175.915 211.949 176.739 211.949C177.478 211.949 178.124 212.1 178.678 212.403C179.232 212.702 179.663 213.156 179.971 213.767C180.278 214.373 180.432 215.14 180.432 216.068V223H178.756V216.182C178.756 215.325 178.533 214.657 178.088 214.179C177.643 213.696 177.033 213.455 176.256 213.455C175.721 213.455 175.243 213.571 174.821 213.803C174.405 214.035 174.076 214.373 173.834 214.818C173.593 215.263 173.472 215.803 173.472 216.438ZM188.353 212.091V213.511H182.472V212.091H188.353ZM184.234 223V210.585C184.234 209.96 184.38 209.439 184.674 209.023C184.968 208.606 185.349 208.294 185.817 208.085C186.286 207.877 186.781 207.773 187.302 207.773C187.714 207.773 188.05 207.806 188.31 207.872C188.571 207.938 188.765 208 188.893 208.057L188.41 209.506C188.325 209.477 188.206 209.442 188.055 209.399C187.908 209.357 187.714 209.335 187.472 209.335C186.918 209.335 186.518 209.475 186.272 209.754C186.031 210.034 185.91 210.443 185.91 210.983V223H184.234ZM192.378 208.455V223H190.702V208.455H192.378ZM202.323 218.54V212.091H203.999V223H202.323V221.153H202.21C201.954 221.707 201.556 222.179 201.016 222.567C200.477 222.95 199.795 223.142 198.971 223.142C198.289 223.142 197.683 222.993 197.153 222.695C196.622 222.392 196.206 221.937 195.903 221.331C195.6 220.72 195.448 219.951 195.448 219.023V212.091H197.124V218.909C197.124 219.705 197.347 220.339 197.792 220.812C198.242 221.286 198.815 221.523 199.511 221.523C199.927 221.523 200.351 221.416 200.782 221.203C201.218 220.99 201.582 220.663 201.876 220.223C202.174 219.783 202.323 219.222 202.323 218.54ZM211.643 223.227C210.592 223.227 209.685 222.995 208.923 222.531C208.165 222.062 207.581 221.409 207.169 220.571C206.761 219.728 206.558 218.748 206.558 217.631C206.558 216.513 206.761 215.528 207.169 214.676C207.581 213.819 208.154 213.152 208.887 212.673C209.626 212.19 210.488 211.949 211.473 211.949C212.041 211.949 212.602 212.044 213.156 212.233C213.71 212.422 214.214 212.73 214.669 213.156C215.123 213.578 215.485 214.136 215.755 214.832C216.025 215.528 216.16 216.385 216.16 217.403V218.114H207.751V216.665H214.456C214.456 216.049 214.333 215.5 214.086 215.017C213.845 214.534 213.499 214.153 213.049 213.874C212.604 213.594 212.079 213.455 211.473 213.455C210.805 213.455 210.227 213.62 209.74 213.952C209.257 214.278 208.885 214.705 208.625 215.23C208.364 215.756 208.234 216.319 208.234 216.92V217.886C208.234 218.71 208.376 219.409 208.66 219.982C208.949 220.55 209.349 220.983 209.86 221.281C210.372 221.575 210.966 221.722 211.643 221.722C212.083 221.722 212.481 221.66 212.836 221.537C213.196 221.409 213.506 221.22 213.767 220.969C214.027 220.713 214.228 220.396 214.37 220.017L215.99 220.472C215.819 221.021 215.533 221.504 215.13 221.92C214.728 222.332 214.231 222.654 213.639 222.886C213.047 223.114 212.382 223.227 211.643 223.227ZM220.386 216.438V223H218.71V212.091H220.329V213.795H220.471C220.727 213.241 221.115 212.796 221.636 212.46C222.157 212.119 222.829 211.949 223.653 211.949C224.392 211.949 225.038 212.1 225.592 212.403C226.146 212.702 226.577 213.156 226.885 213.767C227.192 214.373 227.346 215.14 227.346 216.068V223H225.67V216.182C225.67 215.325 225.448 214.657 225.002 214.179C224.557 213.696 223.947 213.455 223.17 213.455C222.635 213.455 222.157 213.571 221.735 213.803C221.319 214.035 220.99 214.373 220.748 214.818C220.507 215.263 220.386 215.803 220.386 216.438ZM234.841 223.227C233.818 223.227 232.938 222.986 232.199 222.503C231.46 222.02 230.892 221.355 230.494 220.507C230.097 219.66 229.898 218.691 229.898 217.602C229.898 216.494 230.101 215.517 230.509 214.669C230.92 213.817 231.493 213.152 232.227 212.673C232.966 212.19 233.828 211.949 234.812 211.949C235.58 211.949 236.271 212.091 236.886 212.375C237.502 212.659 238.006 213.057 238.399 213.568C238.792 214.08 239.036 214.676 239.131 215.358H237.455C237.327 214.861 237.043 214.42 236.602 214.037C236.167 213.649 235.58 213.455 234.841 213.455C234.188 213.455 233.615 213.625 233.122 213.966C232.634 214.302 232.253 214.778 231.979 215.393C231.709 216.004 231.574 216.722 231.574 217.545C231.574 218.388 231.706 219.122 231.972 219.747C232.241 220.372 232.62 220.857 233.108 221.203C233.6 221.549 234.178 221.722 234.841 221.722C235.277 221.722 235.672 221.646 236.027 221.494C236.382 221.343 236.683 221.125 236.929 220.841C237.175 220.557 237.35 220.216 237.455 219.818H239.131C239.036 220.462 238.802 221.042 238.428 221.558C238.058 222.07 237.568 222.477 236.957 222.78C236.351 223.078 235.646 223.227 234.841 223.227ZM246.155 223.227C245.104 223.227 244.197 222.995 243.435 222.531C242.677 222.062 242.092 221.409 241.68 220.571C241.273 219.728 241.07 218.748 241.07 217.631C241.07 216.513 241.273 215.528 241.68 214.676C242.092 213.819 242.665 213.152 243.399 212.673C244.138 212.19 245 211.949 245.984 211.949C246.553 211.949 247.114 212.044 247.668 212.233C248.222 212.422 248.726 212.73 249.18 213.156C249.635 213.578 249.997 214.136 250.267 214.832C250.537 215.528 250.672 216.385 250.672 217.403V218.114H242.263V216.665H248.967C248.967 216.049 248.844 215.5 248.598 215.017C248.357 214.534 248.011 214.153 247.561 213.874C247.116 213.594 246.59 213.455 245.984 213.455C245.317 213.455 244.739 213.62 244.251 213.952C243.768 214.278 243.397 214.705 243.136 215.23C242.876 215.756 242.746 216.319 242.746 216.92V217.886C242.746 218.71 242.888 219.409 243.172 219.982C243.461 220.55 243.861 220.983 244.372 221.281C244.884 221.575 245.478 221.722 246.155 221.722C246.595 221.722 246.993 221.66 247.348 221.537C247.708 221.409 248.018 221.22 248.278 220.969C248.539 220.713 248.74 220.396 248.882 220.017L250.501 220.472C250.331 221.021 250.045 221.504 249.642 221.92C249.24 222.332 248.742 222.654 248.151 222.886C247.559 223.114 246.893 223.227 246.155 223.227Z"
          fill="black"/>
    <path d="M308.756 182.139C308.405 182.139 308.105 182.014 307.854 181.763C307.603 181.512 307.477 181.211 307.477 180.861C307.477 180.51 307.603 180.21 307.854 179.959C308.105 179.708 308.405 179.582 308.756 179.582C309.106 179.582 309.407 179.708 309.658 179.959C309.909 180.21 310.034 180.51 310.034 180.861C310.034 181.093 309.975 181.306 309.857 181.5C309.743 181.694 309.589 181.85 309.395 181.969C309.205 182.082 308.992 182.139 308.756 182.139ZM308.756 174.781C308.405 174.781 308.105 174.656 307.854 174.405C307.603 174.154 307.477 173.853 307.477 173.503C307.477 173.152 307.603 172.852 307.854 172.601C308.105 172.35 308.405 172.224 308.756 172.224C309.106 172.224 309.407 172.35 309.658 172.601C309.909 172.852 310.034 173.152 310.034 173.503C310.034 173.735 309.975 173.948 309.857 174.142C309.743 174.336 309.589 174.492 309.395 174.611C309.205 174.724 308.992 174.781 308.756 174.781ZM318.894 184V169.455H327.616V171.017H320.656V175.932H326.962V177.494H320.656V184H318.894ZM333.615 184.256C332.924 184.256 332.297 184.125 331.733 183.865C331.17 183.6 330.722 183.219 330.391 182.722C330.06 182.22 329.894 181.614 329.894 180.903C329.894 180.278 330.017 179.772 330.263 179.384C330.509 178.991 330.838 178.683 331.25 178.46C331.662 178.238 332.117 178.072 332.614 177.963C333.116 177.849 333.62 177.759 334.127 177.693C334.79 177.608 335.327 177.544 335.739 177.501C336.156 177.454 336.459 177.376 336.648 177.267C336.842 177.158 336.939 176.969 336.939 176.699V176.642C336.939 175.941 336.748 175.397 336.364 175.009C335.985 174.62 335.41 174.426 334.638 174.426C333.838 174.426 333.211 174.601 332.756 174.952C332.301 175.302 331.982 175.676 331.797 176.074L330.206 175.506C330.49 174.843 330.869 174.327 331.343 173.957C331.821 173.583 332.342 173.323 332.905 173.176C333.473 173.025 334.032 172.949 334.581 172.949C334.932 172.949 335.334 172.991 335.789 173.077C336.248 173.157 336.691 173.325 337.117 173.581C337.548 173.837 337.905 174.223 338.189 174.739C338.473 175.255 338.615 175.946 338.615 176.812V184H336.939V182.523H336.854C336.74 182.759 336.551 183.013 336.286 183.283C336.021 183.553 335.668 183.782 335.228 183.972C334.787 184.161 334.25 184.256 333.615 184.256ZM333.871 182.75C334.534 182.75 335.093 182.62 335.547 182.359C336.007 182.099 336.352 181.763 336.584 181.351C336.821 180.939 336.939 180.506 336.939 180.051V178.517C336.868 178.602 336.712 178.68 336.471 178.751C336.234 178.818 335.959 178.877 335.647 178.929C335.339 178.976 335.038 179.019 334.745 179.057C334.456 179.09 334.221 179.118 334.042 179.142C333.606 179.199 333.199 179.291 332.82 179.419C332.446 179.542 332.143 179.729 331.911 179.98C331.684 180.226 331.57 180.562 331.57 180.989C331.57 181.571 331.785 182.011 332.216 182.31C332.652 182.603 333.203 182.75 333.871 182.75ZM341.675 184V173.091H343.351V184H341.675ZM342.527 171.273C342.2 171.273 341.919 171.161 341.682 170.939C341.45 170.716 341.334 170.449 341.334 170.136C341.334 169.824 341.45 169.556 341.682 169.334C341.919 169.111 342.2 169 342.527 169C342.854 169 343.133 169.111 343.365 169.334C343.602 169.556 343.72 169.824 343.72 170.136C343.72 170.449 343.602 170.716 343.365 170.939C343.133 171.161 342.854 171.273 342.527 171.273ZM346.648 184V169.455H348.324V174.824H348.466C348.589 174.634 348.76 174.393 348.978 174.099C349.2 173.801 349.517 173.536 349.929 173.304C350.346 173.067 350.909 172.949 351.62 172.949C352.538 172.949 353.348 173.179 354.049 173.638C354.749 174.097 355.296 174.748 355.689 175.591C356.082 176.434 356.279 177.428 356.279 178.574C356.279 179.729 356.082 180.731 355.689 181.578C355.296 182.421 354.752 183.074 354.056 183.538C353.36 183.998 352.557 184.227 351.648 184.227C350.947 184.227 350.386 184.111 349.965 183.879C349.543 183.643 349.219 183.375 348.992 183.077C348.765 182.774 348.589 182.523 348.466 182.324H348.267V184H346.648ZM348.296 178.545C348.296 179.369 348.417 180.096 348.658 180.726C348.9 181.351 349.252 181.841 349.716 182.196C350.18 182.546 350.748 182.722 351.421 182.722C352.122 182.722 352.706 182.537 353.175 182.168C353.649 181.794 354.004 181.292 354.24 180.662C354.482 180.027 354.603 179.322 354.603 178.545C354.603 177.778 354.484 177.087 354.248 176.472C354.016 175.851 353.663 175.361 353.189 175.001C352.721 174.637 352.131 174.455 351.421 174.455C350.739 174.455 350.166 174.627 349.702 174.973C349.238 175.314 348.888 175.792 348.651 176.408C348.414 177.018 348.296 177.731 348.296 178.545ZM360.519 169.455V184H358.843V169.455H360.519ZM368.163 184.227C367.112 184.227 366.205 183.995 365.442 183.531C364.685 183.062 364.1 182.409 363.688 181.571C363.281 180.728 363.077 179.748 363.077 178.631C363.077 177.513 363.281 176.528 363.688 175.676C364.1 174.819 364.673 174.152 365.407 173.673C366.146 173.19 367.007 172.949 367.992 172.949C368.56 172.949 369.121 173.044 369.675 173.233C370.229 173.422 370.734 173.73 371.188 174.156C371.643 174.578 372.005 175.136 372.275 175.832C372.545 176.528 372.68 177.385 372.68 178.403V179.114H364.271V177.665H370.975C370.975 177.049 370.852 176.5 370.606 176.017C370.364 175.534 370.019 175.153 369.569 174.874C369.124 174.594 368.598 174.455 367.992 174.455C367.325 174.455 366.747 174.62 366.259 174.952C365.776 175.278 365.405 175.705 365.144 176.23C364.884 176.756 364.754 177.319 364.754 177.92V178.886C364.754 179.71 364.896 180.409 365.18 180.982C365.469 181.55 365.869 181.983 366.38 182.281C366.891 182.575 367.486 182.722 368.163 182.722C368.603 182.722 369.001 182.66 369.356 182.537C369.716 182.409 370.026 182.22 370.286 181.969C370.547 181.713 370.748 181.396 370.89 181.017L372.509 181.472C372.339 182.021 372.052 182.504 371.65 182.92C371.247 183.332 370.75 183.654 370.158 183.886C369.567 184.114 368.901 184.227 368.163 184.227ZM380.854 184V173.091H382.531V184H380.854ZM381.707 171.273C381.38 171.273 381.098 171.161 380.862 170.939C380.629 170.716 380.513 170.449 380.513 170.136C380.513 169.824 380.629 169.556 380.862 169.334C381.098 169.111 381.38 169 381.707 169C382.033 169 382.313 169.111 382.545 169.334C382.781 169.556 382.9 169.824 382.9 170.136C382.9 170.449 382.781 170.716 382.545 170.939C382.313 171.161 382.033 171.273 381.707 171.273ZM387.277 177.438V184H385.6V173.091H387.22V174.795H387.362C387.618 174.241 388.006 173.796 388.527 173.46C389.047 173.119 389.72 172.949 390.544 172.949C391.282 172.949 391.929 173.1 392.483 173.403C393.037 173.702 393.467 174.156 393.775 174.767C394.083 175.373 394.237 176.14 394.237 177.068V184H392.561V177.182C392.561 176.325 392.338 175.657 391.893 175.179C391.448 174.696 390.837 174.455 390.061 174.455C389.526 174.455 389.047 174.571 388.626 174.803C388.209 175.035 387.88 175.373 387.639 175.818C387.397 176.263 387.277 176.803 387.277 177.438ZM402.158 173.091V174.511H396.277V173.091H402.158ZM398.038 184V171.585C398.038 170.96 398.185 170.439 398.479 170.023C398.772 169.606 399.153 169.294 399.622 169.085C400.091 168.877 400.586 168.773 401.107 168.773C401.518 168.773 401.855 168.806 402.115 168.872C402.375 168.938 402.57 169 402.697 169.057L402.214 170.506C402.129 170.477 402.011 170.442 401.859 170.399C401.713 170.357 401.518 170.335 401.277 170.335C400.723 170.335 400.323 170.475 400.077 170.754C399.835 171.034 399.714 171.443 399.714 171.983V184H398.038ZM406.183 169.455V184H404.507V169.455H406.183ZM416.128 179.54V173.091H417.804V184H416.128V182.153H416.014C415.759 182.707 415.361 183.179 414.821 183.567C414.281 183.95 413.599 184.142 412.776 184.142C412.094 184.142 411.488 183.993 410.957 183.695C410.427 183.392 410.01 182.937 409.707 182.331C409.404 181.72 409.253 180.951 409.253 180.023V173.091H410.929V179.909C410.929 180.705 411.152 181.339 411.597 181.812C412.046 182.286 412.619 182.523 413.315 182.523C413.732 182.523 414.156 182.416 414.587 182.203C415.022 181.99 415.387 181.663 415.68 181.223C415.979 180.783 416.128 180.222 416.128 179.54ZM425.448 184.227C424.397 184.227 423.49 183.995 422.728 183.531C421.97 183.062 421.385 182.409 420.973 181.571C420.566 180.728 420.363 179.748 420.363 178.631C420.363 177.513 420.566 176.528 420.973 175.676C421.385 174.819 421.958 174.152 422.692 173.673C423.431 173.19 424.292 172.949 425.277 172.949C425.846 172.949 426.407 173.044 426.961 173.233C427.515 173.422 428.019 173.73 428.473 174.156C428.928 174.578 429.29 175.136 429.56 175.832C429.83 176.528 429.965 177.385 429.965 178.403V179.114H421.556V177.665H428.26C428.26 177.049 428.137 176.5 427.891 176.017C427.65 175.534 427.304 175.153 426.854 174.874C426.409 174.594 425.883 174.455 425.277 174.455C424.61 174.455 424.032 174.62 423.544 174.952C423.061 175.278 422.69 175.705 422.429 176.23C422.169 176.756 422.039 177.319 422.039 177.92V178.886C422.039 179.71 422.181 180.409 422.465 180.982C422.754 181.55 423.154 181.983 423.665 182.281C424.176 182.575 424.771 182.722 425.448 182.722C425.888 182.722 426.286 182.66 426.641 182.537C427.001 182.409 427.311 182.22 427.571 181.969C427.832 181.713 428.033 181.396 428.175 181.017L429.794 181.472C429.624 182.021 429.337 182.504 428.935 182.92C428.533 183.332 428.035 183.654 427.444 183.886C426.852 184.114 426.186 184.227 425.448 184.227ZM434.191 177.438V184H432.515V173.091H434.134V174.795H434.276C434.532 174.241 434.92 173.796 435.441 173.46C435.962 173.119 436.634 172.949 437.458 172.949C438.196 172.949 438.843 173.1 439.397 173.403C439.951 173.702 440.382 174.156 440.689 174.767C440.997 175.373 441.151 176.14 441.151 177.068V184H439.475V177.182C439.475 176.325 439.252 175.657 438.807 175.179C438.362 174.696 437.751 174.455 436.975 174.455C436.44 174.455 435.962 174.571 435.54 174.803C435.123 175.035 434.794 175.373 434.553 175.818C434.311 176.263 434.191 176.803 434.191 177.438ZM448.646 184.227C447.623 184.227 446.742 183.986 446.004 183.503C445.265 183.02 444.697 182.355 444.299 181.507C443.901 180.66 443.702 179.691 443.702 178.602C443.702 177.494 443.906 176.517 444.313 175.669C444.725 174.817 445.298 174.152 446.032 173.673C446.771 173.19 447.632 172.949 448.617 172.949C449.384 172.949 450.076 173.091 450.691 173.375C451.307 173.659 451.811 174.057 452.204 174.568C452.597 175.08 452.841 175.676 452.935 176.358H451.259C451.131 175.861 450.847 175.42 450.407 175.037C449.971 174.649 449.384 174.455 448.646 174.455C447.992 174.455 447.419 174.625 446.927 174.966C446.439 175.302 446.058 175.778 445.783 176.393C445.513 177.004 445.379 177.722 445.379 178.545C445.379 179.388 445.511 180.122 445.776 180.747C446.046 181.372 446.425 181.857 446.913 182.203C447.405 182.549 447.983 182.722 448.646 182.722C449.081 182.722 449.477 182.646 449.832 182.494C450.187 182.343 450.487 182.125 450.734 181.841C450.98 181.557 451.155 181.216 451.259 180.818H452.935C452.841 181.462 452.606 182.042 452.232 182.558C451.863 183.07 451.373 183.477 450.762 183.78C450.156 184.078 449.451 184.227 448.646 184.227ZM459.96 184.227C458.908 184.227 458.002 183.995 457.239 183.531C456.482 183.062 455.897 182.409 455.485 181.571C455.078 180.728 454.874 179.748 454.874 178.631C454.874 177.513 455.078 176.528 455.485 175.676C455.897 174.819 456.47 174.152 457.204 173.673C457.942 173.19 458.804 172.949 459.789 172.949C460.357 172.949 460.918 173.044 461.472 173.233C462.026 173.422 462.531 173.73 462.985 174.156C463.44 174.578 463.802 175.136 464.072 175.832C464.342 176.528 464.477 177.385 464.477 178.403V179.114H456.067V177.665H462.772C462.772 177.049 462.649 176.5 462.403 176.017C462.161 175.534 461.816 175.153 461.366 174.874C460.921 174.594 460.395 174.455 459.789 174.455C459.121 174.455 458.544 174.62 458.056 174.952C457.573 175.278 457.201 175.705 456.941 176.23C456.681 176.756 456.55 177.319 456.55 177.92V178.886C456.55 179.71 456.692 180.409 456.977 180.982C457.265 181.55 457.665 181.983 458.177 182.281C458.688 182.575 459.282 182.722 459.96 182.722C460.4 182.722 460.798 182.66 461.153 182.537C461.513 182.409 461.823 182.22 462.083 181.969C462.344 181.713 462.545 181.396 462.687 181.017L464.306 181.472C464.136 182.021 463.849 182.504 463.447 182.92C463.044 183.332 462.547 183.654 461.955 183.886C461.363 184.114 460.698 184.227 459.96 184.227Z"
          fill="black"/>
    <path d="M308.756 221.139C308.405 221.139 308.105 221.014 307.854 220.763C307.603 220.512 307.477 220.211 307.477 219.861C307.477 219.51 307.603 219.21 307.854 218.959C308.105 218.708 308.405 218.582 308.756 218.582C309.106 218.582 309.407 218.708 309.658 218.959C309.909 219.21 310.034 219.51 310.034 219.861C310.034 220.093 309.975 220.306 309.857 220.5C309.743 220.694 309.589 220.85 309.395 220.969C309.205 221.082 308.992 221.139 308.756 221.139ZM308.756 213.781C308.405 213.781 308.105 213.656 307.854 213.405C307.603 213.154 307.477 212.853 307.477 212.503C307.477 212.152 307.603 211.852 307.854 211.601C308.105 211.35 308.405 211.224 308.756 211.224C309.106 211.224 309.407 211.35 309.658 211.601C309.909 211.852 310.034 212.152 310.034 212.503C310.034 212.735 309.975 212.948 309.857 213.142C309.743 213.336 309.589 213.492 309.395 213.611C309.205 213.724 308.992 213.781 308.756 213.781ZM320.656 208.455V223H318.894V208.455H320.656ZM325.636 216.438V223H323.96V212.091H325.579V213.795H325.721C325.977 213.241 326.365 212.796 326.886 212.46C327.407 212.119 328.079 211.949 328.903 211.949C329.642 211.949 330.288 212.1 330.842 212.403C331.396 212.702 331.827 213.156 332.135 213.767C332.442 214.373 332.596 215.14 332.596 216.068V223H330.92V216.182C330.92 215.325 330.698 214.657 330.252 214.179C329.807 213.696 329.197 213.455 328.42 213.455C327.885 213.455 327.407 213.571 326.985 213.803C326.569 214.035 326.24 214.373 325.998 214.818C325.757 215.263 325.636 215.803 325.636 216.438ZM340.517 212.091V213.511H334.636V212.091H340.517ZM336.398 223V210.585C336.398 209.96 336.545 209.439 336.838 209.023C337.132 208.606 337.513 208.294 337.982 208.085C338.45 207.877 338.945 207.773 339.466 207.773C339.878 207.773 340.214 207.806 340.474 207.872C340.735 207.938 340.929 208 341.057 208.057L340.574 209.506C340.489 209.477 340.37 209.442 340.219 209.399C340.072 209.357 339.878 209.335 339.636 209.335C339.082 209.335 338.682 209.475 338.436 209.754C338.195 210.034 338.074 210.443 338.074 210.983V223H336.398ZM344.542 208.455V223H342.866V208.455H344.542ZM354.487 218.54V212.091H356.163V223H354.487V221.153H354.374C354.118 221.707 353.72 222.179 353.18 222.567C352.641 222.95 351.959 223.142 351.135 223.142C350.453 223.142 349.847 222.993 349.317 222.695C348.786 222.392 348.37 221.937 348.067 221.331C347.764 220.72 347.612 219.951 347.612 219.023V212.091H349.288V218.909C349.288 219.705 349.511 220.339 349.956 220.812C350.406 221.286 350.979 221.523 351.675 221.523C352.091 221.523 352.515 221.416 352.946 221.203C353.382 220.99 353.746 220.663 354.04 220.223C354.338 219.783 354.487 219.222 354.487 218.54ZM363.807 223.227C362.756 223.227 361.849 222.995 361.087 222.531C360.329 222.062 359.745 221.409 359.333 220.571C358.926 219.728 358.722 218.748 358.722 217.631C358.722 216.513 358.926 215.528 359.333 214.676C359.745 213.819 360.318 213.152 361.051 212.673C361.79 212.19 362.652 211.949 363.637 211.949C364.205 211.949 364.766 212.044 365.32 212.233C365.874 212.422 366.378 212.73 366.833 213.156C367.287 213.578 367.65 214.136 367.919 214.832C368.189 215.528 368.324 216.385 368.324 217.403V218.114H359.915V216.665H366.62C366.62 216.049 366.497 215.5 366.25 215.017C366.009 214.534 365.663 214.153 365.213 213.874C364.768 213.594 364.243 213.455 363.637 213.455C362.969 213.455 362.391 213.62 361.904 213.952C361.421 214.278 361.049 214.705 360.789 215.23C360.528 215.756 360.398 216.319 360.398 216.92V217.886C360.398 218.71 360.54 219.409 360.824 219.982C361.113 220.55 361.513 220.983 362.025 221.281C362.536 221.575 363.13 221.722 363.807 221.722C364.248 221.722 364.645 221.66 365 221.537C365.36 221.409 365.67 221.22 365.931 220.969C366.191 220.713 366.392 220.396 366.534 220.017L368.154 220.472C367.983 221.021 367.697 221.504 367.294 221.92C366.892 222.332 366.395 222.654 365.803 222.886C365.211 223.114 364.546 223.227 363.807 223.227ZM372.55 216.438V223H370.874V212.091H372.493V213.795H372.635C372.891 213.241 373.279 212.796 373.8 212.46C374.321 212.119 374.993 211.949 375.817 211.949C376.556 211.949 377.202 212.1 377.756 212.403C378.31 212.702 378.741 213.156 379.049 213.767C379.356 214.373 379.51 215.14 379.51 216.068V223H377.834V216.182C377.834 215.325 377.612 214.657 377.167 214.179C376.721 213.696 376.111 213.455 375.334 213.455C374.799 213.455 374.321 213.571 373.9 213.803C373.483 214.035 373.154 214.373 372.912 214.818C372.671 215.263 372.55 215.803 372.55 216.438ZM387.005 223.227C385.982 223.227 385.102 222.986 384.363 222.503C383.624 222.02 383.056 221.355 382.658 220.507C382.261 219.66 382.062 218.691 382.062 217.602C382.062 216.494 382.265 215.517 382.673 214.669C383.085 213.817 383.657 213.152 384.391 212.673C385.13 212.19 385.992 211.949 386.977 211.949C387.744 211.949 388.435 212.091 389.05 212.375C389.666 212.659 390.17 213.057 390.563 213.568C390.956 214.08 391.2 214.676 391.295 215.358H389.619C389.491 214.861 389.207 214.42 388.766 214.037C388.331 213.649 387.744 213.455 387.005 213.455C386.352 213.455 385.779 213.625 385.286 213.966C384.799 214.302 384.417 214.778 384.143 215.393C383.873 216.004 383.738 216.722 383.738 217.545C383.738 218.388 383.871 219.122 384.136 219.747C384.406 220.372 384.784 220.857 385.272 221.203C385.764 221.549 386.342 221.722 387.005 221.722C387.441 221.722 387.836 221.646 388.191 221.494C388.546 221.343 388.847 221.125 389.093 220.841C389.339 220.557 389.514 220.216 389.619 219.818H391.295C391.2 220.462 390.966 221.042 390.592 221.558C390.222 222.07 389.732 222.477 389.121 222.78C388.515 223.078 387.81 223.227 387.005 223.227ZM398.319 223.227C397.268 223.227 396.361 222.995 395.599 222.531C394.841 222.062 394.256 221.409 393.844 220.571C393.437 219.728 393.234 218.748 393.234 217.631C393.234 216.513 393.437 215.528 393.844 214.676C394.256 213.819 394.829 213.152 395.563 212.673C396.302 212.19 397.164 211.949 398.148 211.949C398.717 211.949 399.278 212.044 399.832 212.233C400.386 212.422 400.89 212.73 401.344 213.156C401.799 213.578 402.161 214.136 402.431 214.832C402.701 215.528 402.836 216.385 402.836 217.403V218.114H394.427V216.665H401.131C401.131 216.049 401.008 215.5 400.762 215.017C400.521 214.534 400.175 214.153 399.725 213.874C399.28 213.594 398.754 213.455 398.148 213.455C397.481 213.455 396.903 213.62 396.415 213.952C395.933 214.278 395.561 214.705 395.3 215.23C395.04 215.756 394.91 216.319 394.91 216.92V217.886C394.91 218.71 395.052 219.409 395.336 219.982C395.625 220.55 396.025 220.983 396.536 221.281C397.048 221.575 397.642 221.722 398.319 221.722C398.759 221.722 399.157 221.66 399.512 221.537C399.872 221.409 400.182 221.22 400.442 220.969C400.703 220.713 400.904 220.396 401.046 220.017L402.665 220.472C402.495 221.021 402.209 221.504 401.806 221.92C401.404 222.332 400.906 222.654 400.315 222.886C399.723 223.114 399.058 223.227 398.319 223.227ZM411.011 223V212.091H412.687V223H411.011ZM411.863 210.273C411.536 210.273 411.254 210.161 411.018 209.939C410.786 209.716 410.67 209.449 410.67 209.136C410.67 208.824 410.786 208.556 411.018 208.334C411.254 208.111 411.536 208 411.863 208C412.19 208 412.469 208.111 412.701 208.334C412.938 208.556 413.056 208.824 413.056 209.136C413.056 209.449 412.938 209.716 412.701 209.939C412.469 210.161 412.19 210.273 411.863 210.273ZM417.433 216.438V223H415.757V212.091H417.376V213.795H417.518C417.774 213.241 418.162 212.796 418.683 212.46C419.204 212.119 419.876 211.949 420.7 211.949C421.439 211.949 422.085 212.1 422.639 212.403C423.193 212.702 423.624 213.156 423.931 213.767C424.239 214.373 424.393 215.14 424.393 216.068V223H422.717V216.182C422.717 215.325 422.494 214.657 422.049 214.179C421.604 213.696 420.993 213.455 420.217 213.455C419.682 213.455 419.204 213.571 418.782 213.803C418.366 214.035 418.037 214.373 417.795 214.818C417.554 215.263 417.433 215.803 417.433 216.438ZM429.132 216.438V223H427.456V212.091H429.075V213.795H429.217C429.473 213.241 429.861 212.796 430.382 212.46C430.903 212.119 431.575 211.949 432.399 211.949C433.138 211.949 433.784 212.1 434.338 212.403C434.892 212.702 435.323 213.156 435.631 213.767C435.938 214.373 436.092 215.14 436.092 216.068V223H434.416V216.182C434.416 215.325 434.194 214.657 433.749 214.179C433.304 213.696 432.693 213.455 431.916 213.455C431.381 213.455 430.903 213.571 430.482 213.803C430.065 214.035 429.736 214.373 429.494 214.818C429.253 215.263 429.132 215.803 429.132 216.438ZM443.729 223.227C442.678 223.227 441.771 222.995 441.009 222.531C440.251 222.062 439.667 221.409 439.255 220.571C438.847 219.728 438.644 218.748 438.644 217.631C438.644 216.513 438.847 215.528 439.255 214.676C439.667 213.819 440.239 213.152 440.973 212.673C441.712 212.19 442.574 211.949 443.559 211.949C444.127 211.949 444.688 212.044 445.242 212.233C445.796 212.422 446.3 212.73 446.755 213.156C447.209 213.578 447.571 214.136 447.841 214.832C448.111 215.528 448.246 216.385 448.246 217.403V218.114H439.837V216.665H446.542C446.542 216.049 446.418 215.5 446.172 215.017C445.931 214.534 445.585 214.153 445.135 213.874C444.69 213.594 444.165 213.455 443.559 213.455C442.891 213.455 442.313 213.62 441.826 213.952C441.343 214.278 440.971 214.705 440.711 215.23C440.45 215.756 440.32 216.319 440.32 216.92V217.886C440.32 218.71 440.462 219.409 440.746 219.982C441.035 220.55 441.435 220.983 441.946 221.281C442.458 221.575 443.052 221.722 443.729 221.722C444.169 221.722 444.567 221.66 444.922 221.537C445.282 221.409 445.592 221.22 445.853 220.969C446.113 220.713 446.314 220.396 446.456 220.017L448.076 220.472C447.905 221.021 447.619 221.504 447.216 221.92C446.814 222.332 446.317 222.654 445.725 222.886C445.133 223.114 444.468 223.227 443.729 223.227ZM451.753 212.091L454.366 216.551L456.98 212.091H458.912L455.389 217.545L458.912 223H456.98L454.366 218.767L451.753 223H449.821L453.287 217.545L449.821 212.091H451.753ZM461.304 223V212.091H462.98V223H461.304ZM462.156 210.273C461.829 210.273 461.547 210.161 461.311 209.939C461.079 209.716 460.963 209.449 460.963 209.136C460.963 208.824 461.079 208.556 461.311 208.334C461.547 208.111 461.829 208 462.156 208C462.483 208 462.762 208.111 462.994 208.334C463.231 208.556 463.349 208.824 463.349 209.136C463.349 209.449 463.231 209.716 462.994 209.939C462.762 210.161 462.483 210.273 462.156 210.273ZM473.777 214.534L472.271 214.96C472.177 214.709 472.037 214.465 471.852 214.229C471.672 213.987 471.426 213.788 471.114 213.632C470.801 213.476 470.401 213.398 469.913 213.398C469.246 213.398 468.689 213.552 468.244 213.859C467.804 214.162 467.584 214.548 467.584 215.017C467.584 215.434 467.735 215.763 468.038 216.004C468.341 216.246 468.815 216.447 469.459 216.608L471.078 217.006C472.054 217.242 472.78 217.605 473.259 218.092C473.737 218.575 473.976 219.198 473.976 219.96C473.976 220.585 473.796 221.144 473.436 221.636C473.081 222.129 472.584 222.517 471.945 222.801C471.305 223.085 470.562 223.227 469.714 223.227C468.602 223.227 467.681 222.986 466.952 222.503C466.223 222.02 465.761 221.314 465.567 220.386L467.158 219.989C467.309 220.576 467.596 221.016 468.017 221.31C468.443 221.603 469 221.75 469.686 221.75C470.467 221.75 471.088 221.584 471.547 221.253C472.011 220.917 472.243 220.514 472.243 220.045C472.243 219.667 472.11 219.349 471.845 219.094C471.58 218.833 471.173 218.639 470.624 218.511L468.805 218.085C467.806 217.848 467.072 217.482 466.604 216.984C466.14 216.482 465.908 215.855 465.908 215.102C465.908 214.487 466.08 213.942 466.426 213.469C466.777 212.995 467.252 212.624 467.854 212.354C468.46 212.084 469.146 211.949 469.913 211.949C470.993 211.949 471.84 212.186 472.456 212.659C473.076 213.133 473.517 213.758 473.777 214.534ZM481.243 212.091V213.511H475.59V212.091H481.243ZM477.238 209.477H478.914V219.875C478.914 220.348 478.982 220.704 479.12 220.94C479.262 221.172 479.442 221.329 479.659 221.409C479.882 221.485 480.116 221.523 480.363 221.523C480.547 221.523 480.699 221.513 480.817 221.494C480.935 221.471 481.03 221.452 481.101 221.438L481.442 222.943C481.328 222.986 481.17 223.028 480.966 223.071C480.763 223.118 480.505 223.142 480.192 223.142C479.719 223.142 479.255 223.04 478.8 222.837C478.35 222.633 477.976 222.323 477.678 221.906C477.384 221.49 477.238 220.964 477.238 220.33V209.477ZM486.975 223.256C486.283 223.256 485.656 223.125 485.093 222.865C484.529 222.6 484.082 222.219 483.75 221.722C483.419 221.22 483.253 220.614 483.253 219.903C483.253 219.278 483.376 218.772 483.623 218.384C483.869 217.991 484.198 217.683 484.61 217.46C485.022 217.238 485.476 217.072 485.973 216.963C486.475 216.849 486.98 216.759 487.486 216.693C488.149 216.608 488.686 216.544 489.098 216.501C489.515 216.454 489.818 216.376 490.007 216.267C490.202 216.158 490.299 215.969 490.299 215.699V215.642C490.299 214.941 490.107 214.397 489.723 214.009C489.345 213.62 488.769 213.426 487.998 213.426C487.197 213.426 486.57 213.601 486.115 213.952C485.661 214.302 485.341 214.676 485.157 215.074L483.566 214.506C483.85 213.843 484.229 213.327 484.702 212.957C485.18 212.583 485.701 212.323 486.265 212.176C486.833 212.025 487.391 211.949 487.941 211.949C488.291 211.949 488.694 211.991 489.148 212.077C489.607 212.157 490.05 212.325 490.476 212.581C490.907 212.837 491.265 213.223 491.549 213.739C491.833 214.255 491.975 214.946 491.975 215.812V223H490.299V221.523H490.213C490.1 221.759 489.91 222.013 489.645 222.283C489.38 222.553 489.027 222.782 488.587 222.972C488.147 223.161 487.609 223.256 486.975 223.256ZM487.23 221.75C487.893 221.75 488.452 221.62 488.907 221.359C489.366 221.099 489.712 220.763 489.944 220.351C490.18 219.939 490.299 219.506 490.299 219.051V217.517C490.228 217.602 490.071 217.68 489.83 217.751C489.593 217.818 489.319 217.877 489.006 217.929C488.698 217.976 488.398 218.019 488.104 218.057C487.815 218.09 487.581 218.118 487.401 218.142C486.965 218.199 486.558 218.291 486.179 218.419C485.805 218.542 485.502 218.729 485.27 218.98C485.043 219.226 484.929 219.562 484.929 219.989C484.929 220.571 485.145 221.011 485.576 221.31C486.011 221.603 486.563 221.75 487.23 221.75ZM496.71 216.438V223H495.034V212.091H496.653V213.795H496.795C497.051 213.241 497.439 212.796 497.96 212.46C498.481 212.119 499.153 211.949 499.977 211.949C500.716 211.949 501.362 212.1 501.916 212.403C502.47 212.702 502.901 213.156 503.209 213.767C503.517 214.373 503.67 215.14 503.67 216.068V223H501.994V216.182C501.994 215.325 501.772 214.657 501.327 214.179C500.882 213.696 500.271 213.455 499.494 213.455C498.959 213.455 498.481 213.571 498.06 213.803C497.643 214.035 497.314 214.373 497.072 214.818C496.831 215.263 496.71 215.803 496.71 216.438ZM511.478 212.091V213.511H505.824V212.091H511.478ZM507.472 209.477H509.148V219.875C509.148 220.348 509.217 220.704 509.354 220.94C509.496 221.172 509.676 221.329 509.894 221.409C510.116 221.485 510.351 221.523 510.597 221.523C510.782 221.523 510.933 221.513 511.051 221.494C511.17 221.471 511.265 221.452 511.336 221.438L511.676 222.943C511.563 222.986 511.404 223.028 511.201 223.071C510.997 223.118 510.739 223.142 510.426 223.142C509.953 223.142 509.489 223.04 509.034 222.837C508.585 222.633 508.211 222.323 507.912 221.906C507.619 221.49 507.472 220.964 507.472 220.33V209.477ZM518.456 223.227C517.404 223.227 516.498 222.995 515.735 222.531C514.978 222.062 514.393 221.409 513.981 220.571C513.574 219.728 513.37 218.748 513.37 217.631C513.37 216.513 513.574 215.528 513.981 214.676C514.393 213.819 514.966 213.152 515.7 212.673C516.439 212.19 517.3 211.949 518.285 211.949C518.853 211.949 519.414 212.044 519.968 212.233C520.522 212.422 521.027 212.73 521.481 213.156C521.936 213.578 522.298 214.136 522.568 214.832C522.838 215.528 522.973 216.385 522.973 217.403V218.114H514.564V216.665H521.268C521.268 216.049 521.145 215.5 520.899 215.017C520.657 214.534 520.312 214.153 519.862 213.874C519.417 213.594 518.891 213.455 518.285 213.455C517.618 213.455 517.04 213.62 516.552 213.952C516.069 214.278 515.698 214.705 515.437 215.23C515.177 215.756 515.047 216.319 515.047 216.92V217.886C515.047 218.71 515.189 219.409 515.473 219.982C515.761 220.55 516.162 220.983 516.673 221.281C517.184 221.575 517.779 221.722 518.456 221.722C518.896 221.722 519.294 221.66 519.649 221.537C520.009 221.409 520.319 221.22 520.579 220.969C520.84 220.713 521.041 220.396 521.183 220.017L522.802 220.472C522.632 221.021 522.345 221.504 521.943 221.92C521.54 222.332 521.043 222.654 520.451 222.886C519.859 223.114 519.194 223.227 518.456 223.227Z"
          fill="black"/>
    <rect x="264.5" y="200.5" width="31" height="31" fill="#EF476F" stroke="black"/>
    <rect x="264.5" y="161.5" width="31" height="31" fill="#FFD166" stroke="black"/>
    <rect x="24.5" y="200.5" width="31" height="31" fill="#118AB2" stroke="black"/>
    <path d="M194.761 20V5.45455H203.54V7.01705H196.523V11.9318H203.085V13.4943H196.523V18.4375H203.653V20H194.761ZM198.369 3.97727L200.102 0.681818H202.062L199.847 3.97727H198.369ZM210.919 20.2273C209.896 20.2273 209.016 19.9858 208.277 19.5028C207.538 19.0199 206.97 18.3546 206.572 17.5071C206.175 16.6596 205.976 15.6913 205.976 14.6023C205.976 13.4943 206.179 12.5166 206.587 11.669C206.999 10.8168 207.571 10.1515 208.305 9.6733C209.044 9.19034 209.906 8.94886 210.891 8.94886C211.658 8.94886 212.349 9.09091 212.964 9.375C213.58 9.65909 214.084 10.0568 214.477 10.5682C214.87 11.0795 215.114 11.6761 215.209 12.358H213.533C213.405 11.8608 213.121 11.4205 212.68 11.0369C212.245 10.6487 211.658 10.4545 210.919 10.4545C210.266 10.4545 209.693 10.625 209.2 10.9659C208.713 11.3021 208.331 11.7779 208.057 12.3935C207.787 13.0043 207.652 13.7216 207.652 14.5455C207.652 15.3883 207.785 16.1222 208.05 16.7472C208.32 17.3722 208.698 17.8575 209.186 18.2031C209.679 18.5488 210.256 18.7216 210.919 18.7216C211.355 18.7216 211.75 18.6458 212.105 18.4943C212.46 18.3428 212.761 18.125 213.007 17.8409C213.253 17.5568 213.429 17.2159 213.533 16.8182H215.209C215.114 17.4621 214.88 18.0421 214.506 18.5582C214.136 19.0696 213.646 19.4768 213.036 19.7798C212.429 20.0781 211.724 20.2273 210.919 20.2273ZM219.335 13.4375V20H217.659V5.45455H219.335V10.7955H219.477C219.733 10.232 220.116 9.78456 220.628 9.45312C221.144 9.11695 221.83 8.94886 222.688 8.94886C223.431 8.94886 224.082 9.09801 224.641 9.39631C225.199 9.68987 225.633 10.142 225.94 10.7528C226.253 11.3589 226.409 12.1307 226.409 13.0682V20H224.733V13.1818C224.733 12.3153 224.508 11.6454 224.058 11.1719C223.613 10.6937 222.995 10.4545 222.205 10.4545C221.655 10.4545 221.163 10.5705 220.727 10.8026C220.296 11.0346 219.955 11.3731 219.705 11.8182C219.458 12.2633 219.335 12.803 219.335 13.4375ZM234.049 20.2273C232.998 20.2273 232.092 19.9953 231.329 19.5312C230.572 19.0625 229.987 18.4091 229.575 17.571C229.168 16.7282 228.964 15.7481 228.964 14.6307C228.964 13.5133 229.168 12.5284 229.575 11.6761C229.987 10.8191 230.56 10.1515 231.294 9.6733C232.032 9.19034 232.894 8.94886 233.879 8.94886C234.447 8.94886 235.008 9.04356 235.562 9.23295C236.116 9.42235 236.62 9.73011 237.075 10.1562C237.529 10.5777 237.892 11.1364 238.162 11.8324C238.431 12.5284 238.566 13.3854 238.566 14.4034V15.1136H230.157V13.6648H236.862C236.862 13.0492 236.739 12.5 236.493 12.017C236.251 11.5341 235.905 11.1529 235.456 10.8736C235.011 10.5942 234.485 10.4545 233.879 10.4545C233.211 10.4545 232.634 10.6203 232.146 10.9517C231.663 11.2784 231.291 11.7045 231.031 12.2301C230.77 12.7557 230.64 13.3191 230.64 13.9205V14.8864C230.64 15.7102 230.782 16.4086 231.066 16.9815C231.355 17.5497 231.755 17.983 232.267 18.2812C232.778 18.5748 233.372 18.7216 234.049 18.7216C234.49 18.7216 234.887 18.66 235.243 18.5369C235.602 18.4091 235.913 18.2197 236.173 17.9688C236.433 17.7131 236.635 17.3958 236.777 17.017L238.396 17.4716C238.225 18.0208 237.939 18.5038 237.537 18.9205C237.134 19.3324 236.637 19.6544 236.045 19.8864C235.453 20.1136 234.788 20.2273 234.049 20.2273ZM242.792 5.45455V20H241.116V5.45455H242.792ZM247.538 5.45455V20H245.862V5.45455H247.538ZM255.182 20.2273C254.131 20.2273 253.224 19.9953 252.462 19.5312C251.704 19.0625 251.12 18.4091 250.708 17.571C250.301 16.7282 250.097 15.7481 250.097 14.6307C250.097 13.5133 250.301 12.5284 250.708 11.6761C251.12 10.8191 251.693 10.1515 252.426 9.6733C253.165 9.19034 254.027 8.94886 255.012 8.94886C255.58 8.94886 256.141 9.04356 256.695 9.23295C257.249 9.42235 257.753 9.73011 258.208 10.1562C258.662 10.5777 259.025 11.1364 259.294 11.8324C259.564 12.5284 259.699 13.3854 259.699 14.4034V15.1136H251.29V13.6648H257.995C257.995 13.0492 257.872 12.5 257.625 12.017C257.384 11.5341 257.038 11.1529 256.588 10.8736C256.143 10.5942 255.618 10.4545 255.012 10.4545C254.344 10.4545 253.766 10.6203 253.279 10.9517C252.796 11.2784 252.424 11.7045 252.164 12.2301C251.903 12.7557 251.773 13.3191 251.773 13.9205V14.8864C251.773 15.7102 251.915 16.4086 252.199 16.9815C252.488 17.5497 252.888 17.983 253.4 18.2812C253.911 18.5748 254.505 18.7216 255.182 18.7216C255.623 18.7216 256.02 18.66 256.375 18.5369C256.735 18.4091 257.045 18.2197 257.306 17.9688C257.566 17.7131 257.767 17.3958 257.909 17.017L259.529 17.4716C259.358 18.0208 259.072 18.5038 258.669 18.9205C258.267 19.3324 257.77 19.6544 257.178 19.8864C256.586 20.1136 255.921 20.2273 255.182 20.2273ZM271.993 20.2273C271.084 20.2273 270.282 19.9976 269.586 19.5384C268.89 19.0743 268.345 18.4209 267.952 17.5781C267.559 16.7306 267.363 15.7292 267.363 14.5739C267.363 13.428 267.559 12.4337 267.952 11.5909C268.345 10.7481 268.892 10.0971 269.593 9.63778C270.293 9.1785 271.103 8.94886 272.022 8.94886C272.732 8.94886 273.293 9.06723 273.705 9.30398C274.122 9.53598 274.439 9.80114 274.657 10.0994C274.879 10.393 275.052 10.6345 275.175 10.8239H275.317V5.45455H276.993V20H275.374V18.3239H275.175C275.052 18.5227 274.877 18.7737 274.65 19.0767C274.422 19.375 274.098 19.6425 273.676 19.8793C273.255 20.1113 272.694 20.2273 271.993 20.2273ZM272.221 18.7216C272.893 18.7216 273.461 18.5464 273.925 18.196C274.389 17.8409 274.742 17.3509 274.983 16.7259C275.225 16.0961 275.346 15.3693 275.346 14.5455C275.346 13.7311 275.227 13.0185 274.99 12.4077C274.754 11.7921 274.403 11.3139 273.939 10.973C273.475 10.6274 272.902 10.4545 272.221 10.4545C271.51 10.4545 270.918 10.6368 270.445 11.0014C269.976 11.3613 269.623 11.8513 269.387 12.4716C269.155 13.0871 269.039 13.7784 269.039 14.5455C269.039 15.322 269.157 16.0275 269.394 16.6619C269.635 17.2917 269.99 17.7936 270.459 18.1676C270.933 18.5369 271.52 18.7216 272.221 18.7216ZM284.87 20.2273C283.819 20.2273 282.912 19.9953 282.15 19.5312C281.392 19.0625 280.807 18.4091 280.395 17.571C279.988 16.7282 279.784 15.7481 279.784 14.6307C279.784 13.5133 279.988 12.5284 280.395 11.6761C280.807 10.8191 281.38 10.1515 282.114 9.6733C282.853 9.19034 283.714 8.94886 284.699 8.94886C285.267 8.94886 285.828 9.04356 286.382 9.23295C286.936 9.42235 287.441 9.73011 287.895 10.1562C288.35 10.5777 288.712 11.1364 288.982 11.8324C289.252 12.5284 289.387 13.3854 289.387 14.4034V15.1136H280.978V13.6648H287.682C287.682 13.0492 287.559 12.5 287.313 12.017C287.071 11.5341 286.726 11.1529 286.276 10.8736C285.831 10.5942 285.305 10.4545 284.699 10.4545C284.032 10.4545 283.454 10.6203 282.966 10.9517C282.483 11.2784 282.112 11.7045 281.851 12.2301C281.591 12.7557 281.461 13.3191 281.461 13.9205V14.8864C281.461 15.7102 281.603 16.4086 281.887 16.9815C282.176 17.5497 282.576 17.983 283.087 18.2812C283.598 18.5748 284.193 18.7216 284.87 18.7216C285.31 18.7216 285.708 18.66 286.063 18.5369C286.423 18.4091 286.733 18.2197 286.993 17.9688C287.254 17.7131 287.455 17.3958 287.597 17.017L289.216 17.4716C289.046 18.0208 288.759 18.5038 288.357 18.9205C287.954 19.3324 287.457 19.6544 286.865 19.8864C286.274 20.1136 285.608 20.2273 284.87 20.2273ZM299.238 5.45455V20H297.561V5.45455H299.238ZM305.518 20.2557C304.826 20.2557 304.199 20.1255 303.636 19.8651C303.072 19.5999 302.625 19.2188 302.293 18.7216C301.962 18.2197 301.796 17.6136 301.796 16.9034C301.796 16.2784 301.919 15.7718 302.165 15.3835C302.412 14.9905 302.741 14.6828 303.153 14.4602C303.565 14.2377 304.019 14.072 304.516 13.9631C305.018 13.8494 305.522 13.7595 306.029 13.6932C306.692 13.608 307.229 13.544 307.641 13.5014C308.058 13.4541 308.361 13.3759 308.55 13.267C308.745 13.1581 308.842 12.9687 308.842 12.6989V12.642C308.842 11.9413 308.65 11.3968 308.266 11.0085C307.888 10.6203 307.312 10.4261 306.54 10.4261C305.74 10.4261 305.113 10.6013 304.658 10.9517C304.204 11.3021 303.884 11.6761 303.7 12.0739L302.109 11.5057C302.393 10.8428 302.772 10.3267 303.245 9.95739C303.723 9.58333 304.244 9.32292 304.808 9.17614C305.376 9.02462 305.934 8.94886 306.484 8.94886C306.834 8.94886 307.237 8.99148 307.691 9.0767C308.15 9.1572 308.593 9.32528 309.019 9.58097C309.45 9.83665 309.808 10.2225 310.092 10.7386C310.376 11.2547 310.518 11.946 310.518 12.8125V20H308.842V18.5227H308.756C308.643 18.7595 308.453 19.0128 308.188 19.2827C307.923 19.5526 307.57 19.7822 307.13 19.9716C306.69 20.161 306.152 20.2557 305.518 20.2557ZM305.773 18.75C306.436 18.75 306.995 18.6198 307.45 18.3594C307.909 18.099 308.254 17.7628 308.487 17.3509C308.723 16.9389 308.842 16.5057 308.842 16.0511V14.517C308.771 14.6023 308.614 14.6804 308.373 14.7514C308.136 14.8177 307.862 14.8769 307.549 14.929C307.241 14.9763 306.941 15.0189 306.647 15.0568C306.358 15.09 306.124 15.1184 305.944 15.142C305.508 15.1989 305.101 15.2912 304.722 15.419C304.348 15.5421 304.045 15.7292 303.813 15.9801C303.586 16.2263 303.472 16.5625 303.472 16.9886C303.472 17.571 303.688 18.0114 304.119 18.3097C304.554 18.6032 305.106 18.75 305.773 18.75ZM328.123 9.09091L324.088 20H322.384L318.35 9.09091H320.168L323.179 17.7841H323.293L326.304 9.09091H328.123ZM333.213 20.2557C332.522 20.2557 331.894 20.1255 331.331 19.8651C330.768 19.5999 330.32 19.2188 329.989 18.7216C329.657 18.2197 329.491 17.6136 329.491 16.9034C329.491 16.2784 329.615 15.7718 329.861 15.3835C330.107 14.9905 330.436 14.6828 330.848 14.4602C331.26 14.2377 331.714 14.072 332.212 13.9631C332.714 13.8494 333.218 13.7595 333.724 13.6932C334.387 13.608 334.925 13.544 335.337 13.5014C335.753 13.4541 336.056 13.3759 336.246 13.267C336.44 13.1581 336.537 12.9687 336.537 12.6989V12.642C336.537 11.9413 336.345 11.3968 335.962 11.0085C335.583 10.6203 335.008 10.4261 334.236 10.4261C333.436 10.4261 332.808 10.6013 332.354 10.9517C331.899 11.3021 331.58 11.6761 331.395 12.0739L329.804 11.5057C330.088 10.8428 330.467 10.3267 330.94 9.95739C331.419 9.58333 331.939 9.32292 332.503 9.17614C333.071 9.02462 333.63 8.94886 334.179 8.94886C334.529 8.94886 334.932 8.99148 335.386 9.0767C335.846 9.1572 336.288 9.32528 336.714 9.58097C337.145 9.83665 337.503 10.2225 337.787 10.7386C338.071 11.2547 338.213 11.946 338.213 12.8125V20H336.537V18.5227H336.452C336.338 18.7595 336.149 19.0128 335.884 19.2827C335.618 19.5526 335.266 19.7822 334.825 19.9716C334.385 20.161 333.848 20.2557 333.213 20.2557ZM333.469 18.75C334.132 18.75 334.69 18.6198 335.145 18.3594C335.604 18.099 335.95 17.7628 336.182 17.3509C336.419 16.9389 336.537 16.5057 336.537 16.0511V14.517C336.466 14.6023 336.31 14.6804 336.068 14.7514C335.831 14.8177 335.557 14.8769 335.244 14.929C334.937 14.9763 334.636 15.0189 334.342 15.0568C334.054 15.09 333.819 15.1184 333.639 15.142C333.204 15.1989 332.796 15.2912 332.418 15.419C332.044 15.5421 331.741 15.7292 331.509 15.9801C331.281 16.2263 331.168 16.5625 331.168 16.9886C331.168 17.571 331.383 18.0114 331.814 18.3097C332.25 18.6032 332.801 18.75 333.469 18.75ZM342.949 5.45455V20H341.272V5.45455H342.949ZM350.592 20.2273C349.541 20.2273 348.634 19.9953 347.872 19.5312C347.115 19.0625 346.53 18.4091 346.118 17.571C345.711 16.7282 345.507 15.7481 345.507 14.6307C345.507 13.5133 345.711 12.5284 346.118 11.6761C346.53 10.8191 347.103 10.1515 347.837 9.6733C348.575 9.19034 349.437 8.94886 350.422 8.94886C350.99 8.94886 351.551 9.04356 352.105 9.23295C352.659 9.42235 353.163 9.73011 353.618 10.1562C354.072 10.5777 354.435 11.1364 354.705 11.8324C354.974 12.5284 355.109 13.3854 355.109 14.4034V15.1136H346.7V13.6648H353.405C353.405 13.0492 353.282 12.5 353.036 12.017C352.794 11.5341 352.448 11.1529 351.999 10.8736C351.554 10.5942 351.028 10.4545 350.422 10.4545C349.754 10.4545 349.177 10.6203 348.689 10.9517C348.206 11.2784 347.834 11.7045 347.574 12.2301C347.313 12.7557 347.183 13.3191 347.183 13.9205V14.8864C347.183 15.7102 347.325 16.4086 347.609 16.9815C347.898 17.5497 348.298 17.983 348.81 18.2812C349.321 18.5748 349.915 18.7216 350.592 18.7216C351.033 18.7216 351.43 18.66 351.786 18.5369C352.145 18.4091 352.455 18.2197 352.716 17.9688C352.976 17.7131 353.178 17.3958 353.32 17.017L354.939 17.4716C354.768 18.0208 354.482 18.5038 354.08 18.9205C353.677 19.3324 353.18 19.6544 352.588 19.8864C351.996 20.1136 351.331 20.2273 350.592 20.2273ZM364.534 15.5398V9.09091H366.21V20H364.534V18.1534H364.42C364.165 18.7074 363.767 19.1785 363.227 19.5668C362.688 19.9503 362.006 20.142 361.182 20.142C360.5 20.142 359.894 19.9929 359.364 19.6946C358.833 19.3916 358.417 18.937 358.114 18.331C357.811 17.7202 357.659 16.9508 357.659 16.0227V9.09091H359.335V15.9091C359.335 16.7045 359.558 17.339 360.003 17.8125C360.453 18.286 361.026 18.5227 361.722 18.5227C362.138 18.5227 362.562 18.4162 362.993 18.2031C363.429 17.9901 363.793 17.6634 364.087 17.223C364.385 16.7827 364.534 16.2216 364.534 15.5398ZM369.28 20V9.09091H370.9V10.7386H371.013C371.212 10.1989 371.572 9.76089 372.093 9.42472C372.614 9.08854 373.201 8.92045 373.854 8.92045C373.977 8.92045 374.131 8.92282 374.316 8.92756C374.5 8.93229 374.64 8.93939 374.735 8.94886V10.6534C374.678 10.6392 374.548 10.6179 374.344 10.5895C374.145 10.5563 373.935 10.5398 373.712 10.5398C373.182 10.5398 372.708 10.651 372.292 10.8736C371.88 11.0914 371.553 11.3944 371.311 11.7827C371.075 12.1662 370.956 12.6042 370.956 13.0966V20H369.28ZM382.574 20V5.45455H387.489C388.63 5.45455 389.563 5.66051 390.287 6.07244C391.016 6.47964 391.556 7.03125 391.906 7.72727C392.257 8.4233 392.432 9.19981 392.432 10.0568C392.432 10.9138 392.257 11.6927 391.906 12.3935C391.561 13.0942 391.026 13.6529 390.301 14.0696C389.577 14.4815 388.649 14.6875 387.517 14.6875H383.994V13.125H387.46C388.241 13.125 388.869 12.9901 389.342 12.7202C389.816 12.4503 390.159 12.0857 390.372 11.6264C390.59 11.1624 390.699 10.6392 390.699 10.0568C390.699 9.47443 390.59 8.9536 390.372 8.49432C390.159 8.03504 389.813 7.67519 389.335 7.41477C388.857 7.14962 388.223 7.01705 387.432 7.01705H384.335V20H382.574Z"
          fill="black"/>
</svg>
