<?xml version="1.0" encoding="utf-8"?>
<svg viewBox="0 0 40 40" xmlns="http://www.w3.org/2000/svg">
    <style>:root>svg{display:none}:root>svg:target{display:block}</style>
    <svg fill="none" viewBox="0 0 20 15" id="icon__arrow" xmlns="http://www.w3.org/2000/svg">
        <path fill="#000" d="M13 14.367l-1.4-1.374 4.6-4.511H0V6.52h16.2l-4.6-4.51L13 .636 20 7.5l-7 6.865z"/>
    </svg>
    <svg fill="none" viewBox="0 0 40 40" id="icon__check" xmlns="http://www.w3.org/2000/svg">
        <path fill="#00CB14"
              d="M17.05 29.1L31.2 14.95l-2.3-2.25-11.85 11.85-6-6L8.8 20.8l8.25 8.3zM20 40c-2.733 0-5.317-.525-7.75-1.575-2.433-1.05-4.558-2.483-6.375-4.3-1.817-1.817-3.25-3.942-4.3-6.375C.525 25.317 0 22.733 0 20c0-2.767.525-5.367 1.575-7.8 1.05-2.433 2.483-4.55 4.3-6.35 1.817-1.8 3.942-3.225 6.375-4.275C14.683.525 17.267 0 20 0c2.767 0 5.367.525 7.8 1.575 2.433 1.05 4.55 2.475 6.35 4.275 1.8 1.8 3.225 3.917 4.275 6.35C39.475 14.633 40 17.233 40 20c0 2.733-.525 5.317-1.575 7.75-1.05 2.433-2.475 4.558-4.275 6.375-1.8 1.817-3.917 3.25-6.35 4.3C25.367 39.475 22.767 40 20 40zm0-3c4.733 0 8.75-1.658 12.05-4.975C35.35 28.708 37 24.7 37 20c0-4.733-1.65-8.75-4.95-12.05C28.75 4.65 24.733 3 20 3c-4.7 0-8.708 1.65-12.025 4.95C4.658 11.25 3 15.267 3 20c0 4.7 1.658 8.708 4.975 12.025C11.292 35.342 15.3 37 20 37z"/>
    </svg>
    <svg fill="none" viewBox="0 0 18 18" id="icon__error" xmlns="http://www.w3.org/2000/svg">
        <path fill="#ED1B2D"
              d="M6 13.164l3-3 3 3 1.166-1.167-3-3 3-3L12 4.831l-3 3-3-3-1.167 1.166 3 3-3 3L6 13.164zm3 4.167a8.111 8.111 0 01-3.25-.657 8.411 8.411 0 01-2.646-1.78 8.41 8.41 0 01-1.78-2.647 8.11 8.11 0 01-.657-3.25 8.11 8.11 0 01.656-3.25 8.41 8.41 0 011.781-2.645A8.421 8.421 0 015.75 1.32 8.119 8.119 0 019 .664c1.153 0 2.236.219 3.25.656a8.421 8.421 0 012.646 1.782 8.41 8.41 0 011.78 2.645 8.11 8.11 0 01.657 3.25 8.11 8.11 0 01-.656 3.25 8.409 8.409 0 01-1.781 2.646 8.411 8.411 0 01-2.646 1.781 8.111 8.111 0 01-3.25.657zm0-1.667c1.86 0 3.437-.646 4.729-1.937 1.292-1.292 1.938-2.869 1.938-4.73 0-1.86-.646-3.437-1.938-4.729-1.292-1.291-2.868-1.937-4.73-1.937-1.86 0-3.437.646-4.728 1.937-1.292 1.292-1.938 2.868-1.938 4.73 0 1.86.646 3.437 1.938 4.729C5.562 15.018 7.139 15.664 9 15.664z"/>
    </svg>
    <svg fill="none" viewBox="0 0 20 20" id="icon__help" xmlns="http://www.w3.org/2000/svg">
        <path fill="#1093D2"
              d="M9.95 16c.35 0 .646-.121.888-.363.241-.241.362-.537.362-.887s-.12-.646-.362-.887a1.208 1.208 0 00-.888-.363c-.35 0-.646.121-.888.363a1.206 1.206 0 00-.362.887c0 .35.12.646.362.887.242.242.538.363.888.363zm-.9-3.85h1.85c0-.55.063-.983.188-1.3.125-.317.479-.75 1.062-1.3a7.484 7.484 0 001.025-1.238c.25-.391.375-.862.375-1.412 0-.933-.342-1.65-1.025-2.15-.683-.5-1.492-.75-2.425-.75-.95 0-1.72.25-2.312.75-.592.5-1.005 1.1-1.238 1.8l1.65.65c.083-.3.271-.625.563-.975.291-.35.737-.525 1.337-.525.533 0 .933.146 1.2.437.267.292.4.613.4.963 0 .333-.1.646-.3.937-.2.292-.45.563-.75.813-.733.65-1.183 1.142-1.35 1.475-.167.333-.25.942-.25 1.825zM10 20a9.733 9.733 0 01-3.9-.788 10.092 10.092 0 01-3.175-2.137c-.9-.9-1.612-1.958-2.137-3.175A9.732 9.732 0 010 10a9.74 9.74 0 01.788-3.9 10.092 10.092 0 012.137-3.175c.9-.9 1.958-1.613 3.175-2.138A9.743 9.743 0 0110 0a9.74 9.74 0 013.9.787 10.105 10.105 0 013.175 2.138c.9.9 1.612 1.958 2.137 3.175A9.733 9.733 0 0120 10a9.733 9.733 0 01-.788 3.9 10.092 10.092 0 01-2.137 3.175c-.9.9-1.958 1.612-3.175 2.137A9.733 9.733 0 0110 20zm0-2c2.233 0 4.125-.775 5.675-2.325C17.225 14.125 18 12.233 18 10c0-2.233-.775-4.125-2.325-5.675C14.125 2.775 12.233 2 10 2c-2.233 0-4.125.775-5.675 2.325C2.775 5.875 2 7.767 2 10c0 2.233.775 4.125 2.325 5.675C5.875 17.225 7.767 18 10 18z"/>
    </svg>
</svg>